<svg width="25" height="25" viewBox="0 0 25 25" fill="none" xmlns="http://www.w3.org/2000/svg">
<path d="M7.95605 6.93848C6.73541 6.94214 6.05988 6.97134 5.50478 7.20433C4.72725 7.53068 4.09406 8.13351 3.72416 8.89957C3.42223 9.52486 3.37282 10.326 3.27401 11.9282L3.11917 14.4389C2.87344 18.4233 2.75057 20.4155 3.91974 21.6768C5.0889 22.938 7.05857 22.938 10.998 22.938H14.9142C18.8536 22.938 20.8233 22.938 21.9924 21.6768C23.1616 20.4155 23.0387 18.4233 22.793 14.4389L22.6381 11.9282C22.5393 10.326 22.4899 9.52486 22.188 8.89957C21.8181 8.13351 21.1849 7.53068 20.4074 7.20433C19.8523 6.97134 19.1767 6.94214 17.9561 6.93848" stroke="#333333" stroke-width="1.5" stroke-linecap="round"/>
<path d="M17.9561 7.9375L17.0703 5.72293C16.6881 4.76746 16.3555 3.6836 15.3727 3.19705C14.8485 2.9375 14.2177 2.9375 12.9561 2.9375C11.6945 2.9375 11.0637 2.9375 10.5394 3.19705C9.55665 3.6836 9.22406 4.76746 8.84188 5.72293L7.95605 7.9375" stroke="#333333" stroke-width="1.5" stroke-linecap="round" stroke-linejoin="round"/>
<path d="M16.4561 14.9375C16.4561 16.8705 14.8891 18.4375 12.9561 18.4375C11.0231 18.4375 9.45605 16.8705 9.45605 14.9375C9.45605 13.0045 11.0231 11.4375 12.9561 11.4375C14.8891 11.4375 16.4561 13.0045 16.4561 14.9375Z" stroke="#333333" stroke-width="1.5"/>
<path d="M12.9561 6.9375H12.9651" stroke="#333333" stroke-width="2" stroke-linecap="round" stroke-linejoin="round"/>
</svg>