<svg width="22" height="22" viewBox="0 0 22 22" fill="none" xmlns="http://www.w3.org/2000/svg">
<path d="M2.25977 10.7325C2.25977 6.82384 2.25977 4.86948 3.47404 3.6552C4.68833 2.44092 6.64268 2.44092 10.5514 2.44092C14.4601 2.44092 16.4144 2.44092 17.6288 3.6552C18.843 4.86948 18.843 6.82384 18.843 10.7325C18.843 14.6412 18.843 16.5956 17.6288 17.8099C16.4144 19.0242 14.4601 19.0242 10.5514 19.0242C6.64268 19.0242 4.68833 19.0242 3.47404 17.8099C2.25977 16.5956 2.25977 14.6412 2.25977 10.7325Z" stroke="white" stroke-width="1.5"/>
<path d="M10.5542 6.40186V12.5554M10.5542 12.5554C10.8388 12.5592 11.1196 12.3636 11.3267 12.1248L12.714 10.5689M10.5542 12.5554C10.2796 12.5517 10.0015 12.3572 9.78163 12.1248L8.38623 10.5689M7.04883 15.1299H14.0312" stroke="white" stroke-width="1.5" stroke-linecap="round"/>
</svg>
