<?xml version="1.0" standalone="no"?>
<!DOCTYPE svg PUBLIC "-//W3C//DTD SVG 20010904//EN"
 "http://www.w3.org/TR/2001/REC-SVG-20010904/DTD/svg10.dtd">
<svg version="1.0" xmlns="http://www.w3.org/2000/svg"
 width="1320.000000pt" height="637.000000pt" viewBox="0 0 1320.000000 637.000000"
 preserveAspectRatio="xMidYMid meet">

<g transform="translate(0.000000,637.000000) scale(0.100000,-0.100000)"
fill="#000000" stroke="none">
<path d="M290 6339 c-143 -16 -224 -81 -258 -205 -15 -54 -17 -316 -20 -2844
-2 -1827 1 -2825 7 -2900 9 -99 15 -124 43 -179 27 -53 42 -69 84 -93 105 -58
-43 -60 2901 36 2613 85 6554 213 6661 217 29 1 49 5 45 8 -11 7 -11 67 -1 77
4 4 3 13 -3 21 -11 12 -2 18 23 14 3 0 5 5 4 12 -3 23 -18 38 -33 33 -8 -4
-11 -1 -8 5 4 6 0 9 -10 7 -10 -2 -20 3 -22 10 -3 8 1 10 14 5 10 -3 15 -3 11
2 -4 4 -3 14 3 22 7 8 8 13 1 13 -5 0 -17 11 -26 25 -16 24 -16 24 9 15 20 -8
25 -6 25 6 0 8 -4 12 -10 9 -5 -3 -10 -1 -10 4 0 19 5 26 17 23 6 -1 14 1 17
6 3 5 -5 9 -17 9 -40 1 -48 3 -42 12 3 6 14 8 24 6 23 -4 22 23 -2 36 -10 6
-14 16 -10 26 4 9 2 14 -3 10 -6 -3 -16 4 -24 16 -12 20 -12 21 3 9 9 -8 18
-9 21 -3 4 5 1 13 -5 16 -5 4 -8 14 -4 23 3 8 1 18 -5 22 -8 5 -6 12 5 24 9 9
12 16 6 16 -6 0 -11 9 -11 21 0 11 -4 17 -10 14 -5 -3 -10 -1 -10 4 0 6 7 11
15 11 8 0 15 5 15 11 0 5 -6 7 -12 3 -10 -6 -9 -3 0 8 11 14 10 20 -7 37 -24
24 -27 41 -8 41 9 0 9 2 -1 9 -11 7 -11 9 1 14 10 4 13 13 10 27 -5 19 -6 20
-19 3 -8 -10 -14 -13 -13 -8 3 24 -2 36 -13 29 -6 -4 -8 -3 -4 4 3 5 21 8 39
6 31 -5 31 -4 8 8 -14 7 -26 19 -27 26 -1 7 0 8 2 3 3 -6 12 -7 20 -4 13 5 12
8 -2 24 -19 21 -6 26 15 6 8 -7 7 -1 -2 13 -9 14 -17 40 -19 58 -1 19 -6 36
-11 39 -4 2 -2 12 5 20 17 21 20 47 4 34 -7 -6 -16 -8 -19 -4 -4 3 -7 1 -7 -4
0 -6 6 -13 12 -15 8 -3 5 -9 -9 -16 -19 -10 -20 -9 -16 9 4 12 0 25 -8 30 -11
7 -10 9 6 10 11 1 23 1 28 0 4 0 7 6 7 14 0 8 -6 15 -12 15 -10 0 -9 3 1 9 7
5 10 14 7 20 -4 6 -2 11 4 11 6 0 8 5 4 11 -4 8 -9 7 -15 -2 -8 -12 -10 -12
-18 0 -10 15 -26 -2 -17 -18 4 -5 -3 -7 -14 -4 -11 3 -20 10 -20 15 0 5 4 7 9
4 4 -3 16 3 26 14 17 18 14 25 -8 21 -5 -1 -6 3 -2 9 3 6 10 8 15 5 4 -3 11 2
14 10 8 21 -15 57 -32 50 -7 -3 -10 0 -7 5 3 6 13 10 21 10 8 0 14 5 14 10 0
6 7 10 15 10 8 0 15 5 15 10 0 7 -8 6 -22 -2 -29 -15 -50 -19 -42 -7 3 5 9 7
13 4 5 -2 8 7 8 21 0 14 -6 28 -14 31 -11 5 -11 9 3 24 12 13 14 22 6 31 -10
13 -11 16 -13 41 0 6 -5 3 -10 -8 l-9 -20 3 20 c2 11 9 19 15 17 7 -1 12 2 12
8 0 5 8 10 18 11 13 0 14 2 2 6 -23 9 -51 41 -41 48 5 3 13 -4 16 -16 6 -19 8
-19 20 -3 11 16 9 20 -12 31 -14 7 -29 10 -34 7 -5 -3 -9 1 -10 8 0 7 -5 4
-10 -7 l-9 -20 3 20 c1 14 13 23 39 29 36 9 36 9 15 26 -18 15 -19 20 -8 34 7
9 10 16 6 16 -4 0 -2 7 5 15 11 13 10 14 -4 9 -9 -3 -16 -10 -16 -14 0 -4 -6
-10 -14 -13 -10 -4 -13 3 -12 23 0 16 4 26 8 24 5 -3 8 0 8 6 0 6 -7 13 -15
16 -16 6 -11 24 6 24 6 0 8 -4 5 -9 -3 -5 1 -11 9 -14 9 -4 12 -1 8 9 -5 13 8
19 30 15 5 -1 0 10 -10 23 -11 16 -24 23 -35 20 -13 -4 -18 0 -18 15 0 12 5
21 11 21 5 0 7 -4 4 -10 -3 -5 0 -10 8 -10 7 0 14 7 14 14 0 8 -4 14 -8 13 -9
-3 -10 8 -2 28 3 9 3 19 -1 22 -3 4 -6 -1 -6 -11 0 -9 -4 -15 -9 -11 -5 3 -16
-2 -24 -10 -13 -13 -16 -11 -26 17 -11 30 -11 31 8 14 22 -20 43 -14 34 9 -3
9 1 15 8 15 12 0 12 2 0 9 -8 5 -11 16 -7 26 5 15 9 15 22 4 9 -7 4 4 -10 26
-25 36 -26 40 -9 46 16 7 15 8 -4 8 -18 1 -22 6 -21 25 1 14 6 22 11 19 5 -3
6 -11 3 -19 -3 -8 0 -11 10 -7 12 4 12 8 2 22 -19 23 -31 30 -42 24 -5 -4 -6
-1 -1 7 6 10 4 12 -8 7 -10 -3 -17 -3 -18 1 0 4 -2 15 -4 24 -2 10 0 17 3 17
19 -3 23 3 12 16 -10 12 -9 15 4 15 11 0 15 -5 11 -12 -4 -7 0 -5 8 5 8 10 12
27 10 38 -5 16 -8 18 -14 7 -6 -9 -9 -7 -9 9 0 12 8 24 18 26 15 4 14 6 -4 12
-15 5 -21 14 -20 31 0 13 6 22 11 20 6 -2 10 -10 9 -18 -1 -8 8 -14 20 -15 12
-1 15 1 9 4 -7 3 -13 11 -13 18 0 7 -7 16 -16 19 -8 3 -14 14 -12 23 1 10 -1
24 -6 31 -4 7 -3 19 4 27 10 11 7 15 -14 21 -25 6 -25 7 -9 20 17 13 17 14 0
8 -13 -5 -16 -2 -11 10 3 9 11 13 17 9 6 -4 7 -1 3 6 -5 7 -14 10 -22 7 -7 -3
-16 -1 -19 4 -4 6 7 10 24 10 16 0 33 4 36 10 3 5 0 7 -9 4 -23 -9 -39 5 -25
22 6 7 16 11 22 7 6 -3 7 -1 3 6 -5 7 -17 9 -29 5 -22 -6 -22 -6 -2 11 11 9
14 14 8 10 -9 -4 -11 2 -7 23 4 18 1 32 -6 37 -8 5 -6 11 7 22 16 13 16 14 1
9 -12 -3 -15 -1 -11 10 3 8 -1 14 -8 14 -11 0 -11 2 1 10 18 11 23 62 7 72 -6
4 -21 -1 -32 -10 -20 -17 -20 -17 -2 5 11 13 16 27 11 35 -4 7 -4 10 1 6 4 -4
15 -2 24 5 14 11 14 10 2 -6 -8 -9 -11 -20 -7 -24 3 -3 6 -1 6 5 0 6 8 9 18 6
13 -4 14 -3 4 4 -8 5 -13 12 -13 16 3 23 0 26 -19 16 -18 -10 -19 -8 -14 32 6
37 5 41 -9 30 -12 -10 -17 -10 -23 -1 -4 7 -3 9 3 6 6 -4 16 0 22 7 9 11 9 16
0 21 -6 4 -16 1 -21 -6 -6 -9 -7 -3 -3 19 7 33 6 33 -17 22 l-23 -11 22 19
c12 11 19 23 15 27 -4 5 -2 5 5 2 6 -4 18 -4 27 -1 12 5 13 10 5 25 -5 10 -15
19 -21 19 -7 0 -6 -5 2 -15 15 -18 5 -20 -14 -3 -11 11 -11 15 3 26 14 12 14
13 -4 9 -16 -3 -20 1 -19 20 0 14 7 29 15 34 10 6 10 9 2 9 -7 0 -13 5 -13 11
0 5 5 7 12 3 7 -5 9 -2 6 7 -6 17 12 37 29 32 6 -2 14 1 18 6 4 7 0 8 -11 4
-13 -5 -15 -3 -9 7 5 9 4 11 -3 6 -7 -4 -12 -3 -12 3 0 6 -10 19 -22 31 -20
19 -21 21 -5 33 16 11 16 14 3 32 -14 17 -17 18 -26 5 -7 -10 -10 -11 -10 -2
0 7 11 17 25 24 24 11 25 34 0 25 -8 -4 -12 4 -11 21 1 15 -4 26 -9 25 -6 -1
-12 12 -13 29 -2 28 -1 29 14 17 10 -8 12 -15 5 -17 -6 -2 -9 -8 -6 -12 3 -5
11 -7 18 -4 8 3 11 20 9 48 -3 34 -7 43 -18 39 -8 -3 -14 -2 -13 3 4 21 -2 25
-19 13 -15 -13 -16 -12 -3 3 7 10 17 15 22 13 10 -7 28 26 22 43 -3 6 -9 10
-14 6 -5 -3 -9 0 -9 6 0 6 -6 8 -13 5 -6 -4 -3 1 7 9 11 9 14 16 7 16 -7 0 -9
5 -6 10 4 6 11 8 16 5 5 -4 9 -2 9 4 0 15 -18 23 -25 11 -9 -15 -22 -12 -22 5
0 8 5 12 10 8 5 -3 6 3 3 15 -4 11 -2 23 4 27 5 3 10 11 10 16 0 6 -4 8 -8 5
-4 -2 -14 4 -20 15 -12 18 -11 19 7 9 17 -9 20 -8 15 5 -4 10 0 15 12 15 16 0
16 2 5 9 -9 6 -22 6 -32 1 -20 -11 -30 -3 -22 17 3 8 8 10 12 5 4 -6 11 -4 19
4 10 11 10 14 -2 14 -7 0 -17 8 -21 18 -5 14 -4 15 6 5 22 -22 29 -14 14 14
-13 24 -12 30 3 48 9 11 13 17 8 12 -5 -4 -17 0 -27 9 -11 10 -19 12 -24 5 -3
-6 4 -15 16 -19 17 -7 19 -11 9 -17 -8 -5 -16 -2 -22 9 -5 9 -15 13 -21 10 -7
-4 2 8 18 26 17 18 25 34 19 37 -6 2 -9 16 -6 32 2 17 -2 34 -13 44 -9 10 -13
17 -8 17 5 0 14 -5 21 -12 7 -7 12 -10 13 -8 0 3 2 13 4 22 2 10 -2 15 -10 11
-10 -3 -13 4 -10 28 4 29 3 30 -9 13 -8 -10 -12 -24 -9 -31 3 -7 0 -13 -7 -13
-6 0 -8 5 -5 10 3 6 1 10 -4 10 -10 0 -15 -14 -12 -33 1 -5 -3 -6 -8 -2 -14 8
-3 33 20 46 11 5 19 16 19 24 0 8 7 15 16 15 8 0 12 5 9 10 -4 6 -10 8 -15 5
-15 -9 -30 19 -18 35 8 12 9 12 4 -2 -3 -10 -1 -18 4 -18 6 0 10 9 10 20 0 12
-7 20 -17 20 -15 0 -16 2 -3 10 12 7 10 11 -10 19 -21 8 -14 16 12 13 3 -1 12
6 20 15 8 10 8 14 1 10 -23 -14 -24 14 -1 34 22 19 22 20 1 10 -12 -6 -23 -8
-26 -3 -2 4 -2 1 -1 -5 2 -7 -1 -13 -7 -13 -6 0 -9 8 -7 18 2 9 11 16 21 16 9
-1 14 2 11 7 -3 5 0 9 5 9 6 0 11 5 11 11 0 8 -6 7 -17 -2 -13 -11 -17 -11
-20 -1 -3 6 -9 10 -14 6 -5 -3 -9 0 -9 5 0 6 7 11 15 11 8 0 15 5 15 11 0 5
-4 7 -10 4 -5 -3 -10 -1 -10 4 0 6 6 11 13 11 8 0 7 4 -3 10 -8 5 -11 10 -6
10 5 0 3 6 -3 14 -9 10 -7 17 6 27 9 8 14 9 11 4 -4 -6 -2 -17 3 -25 7 -12 8
-10 6 7 -2 11 -8 28 -15 35 -6 8 -8 19 -4 23 4 5 2 5 -5 1 -6 -3 -15 -1 -18 5
-4 5 -13 8 -21 5 -8 -3 -14 -1 -14 4 0 6 6 10 14 10 8 0 18 5 22 12 5 8 1 9
-12 5 -18 -7 -18 -6 1 8 18 14 20 14 27 -2 6 -13 7 -11 3 7 -2 14 -5 36 -5 50
0 19 -3 21 -9 11 -5 -8 -8 -19 -7 -25 2 -6 1 -8 -1 -3 -3 4 -10 4 -16 0 -7 -4
-6 1 2 10 17 21 7 35 -13 18 -10 -9 -15 -8 -19 3 -3 8 1 13 10 12 20 -1 25 51
5 59 -9 3 -10 10 -3 24 6 10 7 21 4 25 -3 3 -1 6 6 6 7 0 9 5 5 12 -4 7 -3 8
5 4 6 -4 9 -11 6 -16 -3 -4 3 -14 12 -21 12 -10 14 -10 9 -1 -4 7 -2 12 4 12
6 0 0 10 -13 23 -13 12 -22 28 -20 35 3 7 -1 10 -10 6 -12 -4 -15 1 -13 20 4
29 2 30 -24 16 -13 -7 -21 -7 -25 0 -4 6 -3 10 2 9 4 -1 20 1 36 6 22 6 25 10
16 21 -9 11 -8 15 5 20 9 3 13 11 9 17 -11 17 -11 51 -2 58 17 10 -32 51 -55
45 -20 -5 -21 -5 -2 9 23 17 40 20 31 5 -3 -6 1 -7 10 -4 15 6 15 8 1 22 -13
13 -13 18 2 41 l17 26 -27 -17 c-33 -22 -51 -24 -21 -3 14 10 20 22 16 31 -3
10 -8 12 -12 5 -4 -6 -12 -1 -20 12 -12 19 -12 20 0 10 9 -7 20 -8 28 -4 10 6
5 11 -15 19 -16 6 -23 11 -16 11 7 1 10 6 7 11 -3 6 2 10 12 10 15 0 16 2 3
11 -12 8 -10 10 10 5 l25 -5 -25 19 c-14 11 -30 18 -36 16 -11 -4 -13 49 -2
60 4 3 5 -6 4 -21 -2 -18 1 -25 10 -21 7 3 15 0 18 -7 2 -7 5 -4 5 6 1 9 -2
17 -7 17 -4 0 -8 14 -8 31 -1 17 -8 35 -15 39 -9 6 -10 14 -2 32 12 26 -8 84
-36 104 -15 11 -14 13 4 20 11 4 23 12 27 18 5 7 8 7 8 -2 0 -7 -8 -16 -18
-20 -16 -6 -16 -8 -2 -23 11 -10 23 -13 36 -8 17 7 17 8 -3 8 -22 1 -34 21
-13 21 5 0 8 13 7 29 -1 16 -6 27 -11 23 -5 -3 -7 2 -3 11 4 12 1 17 -11 17
-9 0 -26 7 -36 15 -10 8 -24 11 -30 8 -6 -4 -6 0 1 9 7 8 12 17 10 19 -1 2 4
-2 11 -10 6 -8 12 -11 12 -6 0 5 7 0 16 -11 15 -18 15 -18 10 12 -3 18 0 36 7
43 9 9 9 14 -2 20 -10 6 -10 13 -3 28 9 16 7 19 -10 20 -12 1 -26 7 -31 12 -7
7 -4 9 11 6 19 -3 22 0 19 30 -1 26 -5 31 -15 23 -11 -9 -11 -13 0 -20 10 -7
10 -8 -2 -5 -8 2 -14 10 -12 17 1 7 -3 19 -9 26 -10 12 -8 18 7 29 10 8 23 15
27 15 4 0 7 6 6 13 -4 29 4 40 12 17 l8 -25 -2 25 c-2 20 -7 25 -29 25 -14 0
-30 4 -34 8 -5 4 0 5 10 1 13 -5 17 -3 14 6 -2 7 -15 15 -28 17 -14 2 -29 9
-35 15 -7 7 -7 9 1 5 6 -3 23 -8 38 -11 25 -4 26 -3 14 11 -9 12 -9 15 0 9 8
-5 12 0 12 14 0 13 4 19 12 14 7 -4 8 -3 4 5 -4 6 -12 9 -17 6 -5 -4 -9 1 -9
9 0 14 -425 16 -4382 15 -2411 -1 -4417 -5 -4458 -10z m8818 -14 c1 -4 -11 -9
-27 -9 -16 -1 -27 4 -24 9 4 13 47 12 51 0z m20 -140 c-3 -3 -9 2 -12 12 -6
14 -5 15 5 6 7 -7 10 -15 7 -18z m11 -309 c9 -11 9 -16 -1 -22 -7 -4 -10 -4
-6 1 4 4 3 14 -3 22 -6 7 -9 13 -6 13 2 0 10 -6 16 -14z m41 -241 c0 -12 -19
-12 -23 0 -4 9 -1 12 9 8 7 -3 14 -7 14 -8z m56 -370 c1 -14 -2 -25 -6 -25 -6
0 -7 36 -1 48 4 7 6 -1 7 -23z m-29 -22 c-4 -3 1 -12 11 -20 15 -13 15 -13 -4
-4 -12 6 -25 7 -30 3 -5 -4 -2 1 5 11 7 9 16 17 19 17 3 0 2 -3 -1 -7z m6 -59
c-4 -12 -8 -13 -14 -3 -9 15 -2 32 11 24 5 -3 6 -13 3 -21z m18 -327 c-10 -9
-11 -8 -5 6 3 10 9 15 12 12 3 -3 0 -11 -7 -18z m59 -62 c0 -12 -19 -12 -23 0
-4 9 -1 12 9 8 7 -3 14 -7 14 -8z m-33 -70 c0 -8 -4 -12 -9 -9 -5 3 -6 10 -3
15 9 13 12 11 12 -6z m53 -150 c11 -13 10 -14 -4 -9 -9 3 -16 10 -16 15 0 13
6 11 20 -6z m11 -264 c-8 -5 -10 -14 -5 -22 6 -11 5 -12 -8 -2 -8 7 -17 12
-19 10 -2 -1 2 4 10 11 8 6 20 12 25 12 6 0 5 -4 -3 -9z m25 -427 c2 -12 -1
-13 -12 -3 -7 6 -11 16 -8 21 7 11 17 3 20 -18z m54 -30 c0 -8 -19 -13 -24 -6
-3 5 1 9 9 9 8 0 15 -2 15 -3z m-40 -17 c0 -2 -10 -12 -22 -23 -16 -13 -19
-14 -10 -2 10 13 10 17 0 21 -7 3 -3 6 10 6 12 1 22 -1 22 -2z m-13 -111 c0
-8 -6 -12 -15 -9 -11 5 -11 7 0 14 7 5 13 9 14 9 0 0 1 -6 1 -14z m89 -239 c4
-4 -2 -7 -14 -7 -11 0 -23 4 -26 8 -6 10 30 9 40 -1z m-49 -72 c0 -8 -4 -12
-9 -9 -5 3 -6 10 -3 15 9 13 12 11 12 -6z m47 -291 c5 -14 4 -15 -9 -4 -17 14
-19 20 -6 20 5 0 12 -7 15 -16z m39 -94 c-3 -11 -7 -20 -9 -20 -2 0 -4 9 -4
20 0 11 4 20 9 20 5 0 7 -9 4 -20z m-4 -307 c0 -10 -3 -13 -5 -6 -3 7 -13 9
-22 6 -15 -4 -15 -3 -2 6 22 15 30 14 29 -6z m28 -47 c-1 -6 3 -10 9 -9 7 1
10 -6 7 -17 -3 -11 -9 -20 -15 -20 -5 0 -4 -9 2 -20 12 -23 -4 -28 -30 -9 -12
9 -12 10 4 5 13 -5 17 -2 13 9 -4 8 -2 17 3 20 6 4 10 11 10 17 0 6 -3 8 -7 5
-8 -8 -34 13 -28 22 7 12 34 9 32 -3z m40 -182 c-3 -3 -12 -4 -19 -1 -8 3 -5
6 6 6 11 1 17 -2 13 -5z m-27 -148 c0 -3 -4 -8 -10 -11 -5 -3 -10 -1 -10 4 0
6 5 11 10 11 6 0 10 -2 10 -4z m29 -55 c-6 -2 -18 4 -27 13 -15 15 -15 15 10
4 15 -7 23 -15 17 -17z m25 -20 c3 -5 -5 -8 -19 -8 -14 0 -22 3 -19 8 3 5 11
9 19 9 8 0 16 -4 19 -9z m-14 -43 c0 -18 -2 -20 -9 -8 -6 8 -7 18 -5 22 9 14
14 9 14 -14z m54 -157 c3 -5 0 -11 -8 -14 -8 -3 -17 1 -20 9 -6 15 19 20 28 5z
m-70 -40 c-2 -3 -12 3 -22 13 -16 17 -16 18 5 5 12 -7 20 -15 17 -18z m6 -123
c0 -4 -4 -8 -9 -8 -6 0 -12 4 -15 8 -3 5 1 9 9 9 8 0 15 -4 15 -9z m35 2 c3
-5 1 -10 -4 -10 -6 0 -11 5 -11 10 0 6 2 10 4 10 3 0 8 -4 11 -10z m35 -204
c0 -3 -4 -8 -10 -11 -5 -3 -10 -1 -10 4 0 6 5 11 10 11 6 0 10 -2 10 -4z m-36
-54 c-6 -4 -10 -17 -9 -29 1 -18 -1 -20 -12 -11 -11 9 -12 13 -1 19 7 5 9 9 5
9 -5 0 -5 5 -2 10 3 6 12 10 18 10 8 0 9 -2 1 -8z m53 -128 c-3 -3 -12 -4 -19
-1 -8 3 -5 6 6 6 11 1 17 -2 13 -5z m-10 -130 c-3 -3 -12 -4 -19 -1 -8 3 -5 6
6 6 11 1 17 -2 13 -5z m52 -160 c3 -4 -2 -4 -11 -1 -10 4 -18 2 -18 -4 0 -6
-4 -7 -10 -4 -5 3 -10 10 -10 15 0 10 39 5 49 -6z m-22 -193 c0 -11 -5 -18 -9
-15 -4 3 -5 11 -1 19 7 21 12 19 10 -4z m76 -308 c-7 -2 -19 -2 -25 0 -7 3 -2
5 12 5 14 0 19 -2 13 -5z m-23 -209 c0 -8 -19 -13 -24 -6 -3 5 1 9 9 9 8 0 15
-2 15 -3z m61 -17 c-13 -13 -26 -3 -16 12 3 6 11 8 17 5 6 -4 6 -10 -1 -17z
m-27 -83 c3 -8 2 -12 -4 -9 -6 3 -10 10 -10 16 0 14 7 11 14 -7z"/>
<path d="M9148 6153 c7 -3 16 -2 19 1 4 3 -2 6 -13 5 -11 0 -14 -3 -6 -6z"/>
<path d="M9130 6131 c0 -5 9 -7 20 -4 11 3 20 7 20 9 0 2 -9 4 -20 4 -11 0
-20 -4 -20 -9z"/>
<path d="M9170 6056 c0 -2 7 -7 16 -10 8 -3 12 -2 9 4 -6 10 -25 14 -25 6z"/>
<path d="M9180 5931 c0 -5 7 -12 16 -15 14 -5 15 -4 4 9 -14 17 -20 19 -20 6z"/>
<path d="M9210 5855 c0 -8 2 -15 4 -15 2 0 6 7 10 15 3 8 1 15 -4 15 -6 0 -10
-7 -10 -15z"/>
<path d="M9220 5615 c0 -8 4 -15 10 -15 5 0 7 7 4 15 -4 8 -8 15 -10 15 -2 0
-4 -7 -4 -15z"/>
<path d="M9230 5375 c0 -7 30 -13 34 -7 3 4 -4 9 -15 9 -10 1 -19 0 -19 -2z"/>
<path d="M9272 5300 c0 -14 2 -19 5 -12 2 6 2 18 0 25 -3 6 -5 1 -5 -13z"/>
<path d="M9261 5189 c2 -8 -2 -24 -9 -36 -11 -19 -10 -22 3 -17 8 4 15 12 15
19 0 7 4 15 9 17 5 2 2 9 -6 17 -12 11 -14 11 -12 0z"/>
<path d="M9290 5096 c0 -2 8 -10 18 -17 15 -13 16 -12 3 4 -13 16 -21 21 -21
13z"/>
<path d="M9255 5023 c4 -10 8 -28 10 -41 1 -12 6 -26 10 -30 5 -4 5 2 1 12 -4
12 -2 23 6 28 10 8 10 11 1 15 -7 2 -13 11 -13 19 0 8 -5 14 -11 14 -7 0 -8
-7 -4 -17z"/>
<path d="M9345 4480 c3 -5 8 -10 11 -10 2 0 4 5 4 10 0 6 -5 10 -11 10 -5 0
-7 -4 -4 -10z"/>
<path d="M9365 4300 c-3 -5 -1 -10 4 -10 6 0 11 5 11 10 0 6 -2 10 -4 10 -3 0
-8 -4 -11 -10z"/>
<path d="M9350 4243 c-13 -15 -12 -16 4 -10 10 4 20 7 22 7 2 0 4 5 4 10 0 15
-13 12 -30 -7z"/>
<path d="M9384 3976 c11 -9 24 -16 30 -16 12 0 7 5 -24 19 -24 11 -24 11 -6
-3z"/>
<path d="M9406 3687 c3 -10 9 -15 12 -12 3 3 0 11 -7 18 -10 9 -11 8 -5 -6z"/>
<path d="M9418 3543 c7 -3 16 -2 19 1 4 3 -2 6 -13 5 -11 0 -14 -3 -6 -6z"/>
<path d="M9438 3396 c-24 -18 -23 -24 4 -22 13 0 23 -4 23 -11 0 -20 11 -23
12 -3 1 10 -5 21 -13 24 -9 3 -12 10 -9 16 8 13 4 12 -17 -4z"/>
<path d="M9441 3281 c-9 -6 -10 -11 -2 -15 6 -4 8 -12 5 -18 -4 -6 -2 -8 4 -4
6 3 10 15 9 26 -1 11 -1 20 -2 20 0 0 -6 -4 -14 -9z"/>
<path d="M9486 2988 c3 -5 10 -6 15 -3 13 9 11 12 -6 12 -8 0 -12 -4 -9 -9z"/>
<path d="M9530 2840 c0 -5 5 -10 11 -10 5 0 7 5 4 10 -3 6 -8 10 -11 10 -2 0
-4 -4 -4 -10z"/>
<path d="M9537 2729 c7 -7 15 -10 18 -7 3 3 -2 9 -12 12 -14 6 -15 5 -6 -5z"/>
<path d="M9525 2444 c-17 -14 -25 -23 -18 -20 15 8 44 -4 37 -15 -3 -5 2 -6
10 -3 11 4 14 14 10 33 -4 14 -7 27 -8 28 -1 1 -15 -9 -31 -23z m25 -4 c0 -5
-5 -10 -11 -10 -5 0 -7 5 -4 10 3 6 8 10 11 10 2 0 4 -4 4 -10z"/>
<path d="M9598 1873 c7 -3 16 -2 19 1 4 3 -2 6 -13 5 -11 0 -14 -3 -6 -6z"/>
<path d="M9617 1763 c-11 -11 -8 -20 8 -20 8 0 16 6 19 14 5 13 -15 18 -27 6z"/>
<path d="M9626 1685 c-13 -10 -16 -19 -10 -25 5 -5 13 0 21 16 6 13 10 24 10
24 -1 0 -11 -7 -21 -15z"/>
<path d="M9630 1630 c-9 -6 -10 -10 -3 -10 6 0 15 5 18 10 8 12 4 12 -15 0z"/>
<path d="M9650 1510 c0 -5 5 -10 11 -10 5 0 7 5 4 10 -3 6 -8 10 -11 10 -2 0
-4 -4 -4 -10z"/>
<path d="M9681 1034 c0 -11 3 -14 6 -6 3 7 2 16 -1 19 -3 4 -6 -2 -5 -13z"/>
<path d="M9735 891 c-3 -5 -2 -12 3 -15 5 -3 9 1 9 9 0 17 -3 19 -12 6z"/>
<path d="M9755 630 c-3 -5 -1 -10 4 -10 6 0 11 5 11 10 0 6 -2 10 -4 10 -3 0
-8 -4 -11 -10z"/>
<path d="M9770 410 c6 -11 13 -20 16 -20 2 0 0 9 -6 20 -6 11 -13 20 -16 20
-2 0 0 -9 6 -20z"/>
</g>
</svg>
