<?xml version="1.0" standalone="no"?>
<!DOCTYPE svg PUBLIC "-//W3C//DTD SVG 20010904//EN"
 "http://www.w3.org/TR/2001/REC-SVG-20010904/DTD/svg10.dtd">
<svg version="1.0" xmlns="http://www.w3.org/2000/svg"
 width="1320.000000pt" height="637.000000pt" viewBox="0 0 1320.000000 637.000000"
 preserveAspectRatio="xMidYMid meet">
<metadata>
Created by potrace 1.16, written by Peter Selinger 2001-2019
</metadata>
<g transform="translate(0.000000,637.000000) scale(0.100000,-0.100000)"
fill="#000000" stroke="none">
<path d="M281 6339 c-133 -17 -220 -89 -252 -206 -17 -62 -26 -5600 -10 -5753
14 -124 34 -180 82 -229 58 -57 110 -72 269 -78 110 -4 2880 82 4915 152 242
8 856 29 1365 45 509 16 986 32 1060 35 180 8 1947 65 2005 65 25 0 45 5 45
11 0 5 -4 8 -8 5 -7 -4 -9 59 -2 74 1 3 3 12 4 20 0 8 6 14 13 13 6 -1 10 3 9
10 -3 23 -18 38 -33 33 -8 -3 -11 -1 -8 4 3 6 -4 10 -17 11 -22 0 -22 1 -3 9
11 5 16 9 11 9 -5 1 -3 8 4 16 7 8 9 15 4 15 -5 0 -17 12 -27 25 l-18 25 26
-10 c20 -8 25 -6 25 6 0 8 -4 12 -10 9 -5 -3 -11 -1 -11 4 -1 6 -2 16 -3 21 0
6 -7 15 -15 19 -16 10 -3 20 20 16 22 -4 18 24 -4 36 -10 6 -14 16 -10 26 4 9
2 14 -3 10 -6 -3 -16 4 -24 16 -12 20 -12 21 4 8 20 -16 34 -7 18 12 -6 7 -8
24 -5 37 5 18 3 21 -8 15 -8 -5 -5 1 5 13 14 16 15 22 6 22 -11 0 -11 3 -2 12
7 7 12 17 12 23 0 5 -5 3 -10 -5 -7 -11 -10 -11 -10 -2 0 7 -6 10 -13 7 -6 -4
-5 -1 3 7 17 14 24 58 10 58 -4 0 -6 8 -3 19 2 10 -2 25 -11 34 -14 13 -14 16
0 21 8 3 13 10 9 15 -3 6 3 15 12 20 15 9 12 10 -14 6 -25 -4 -31 -2 -27 9 3
8 14 12 27 10 19 -4 18 -3 -3 6 -23 10 -24 12 -8 24 14 10 15 15 5 26 -10 10
-9 12 6 7 15 -6 16 -4 7 13 -6 12 -17 17 -28 14 -13 -5 -14 -4 -3 4 8 6 12 20
9 36 -4 18 0 30 11 36 13 8 12 9 -8 10 -20 0 -22 2 -10 16 15 19 21 47 8 38
-5 -3 -9 4 -9 15 0 12 -6 21 -12 21 -9 0 -9 3 -2 8 14 9 24 38 17 46 -4 3 -12
1 -20 -5 -10 -9 -13 -8 -13 0 0 7 -5 9 -12 5 -9 -5 -9 -2 1 9 12 16 8 22 -12
18 -5 -1 -6 3 -2 8 3 6 13 7 23 4 15 -6 16 -5 2 12 -8 10 -10 16 -3 12 8 -5
11 -1 10 12 0 11 -5 17 -11 14 -5 -4 -6 5 -2 21 4 17 3 25 -3 22 -5 -4 -13 -1
-17 5 -4 7 -3 9 4 5 7 -4 10 3 9 19 -1 14 -8 30 -16 34 -8 5 -9 11 -3 15 5 3
12 -1 16 -9 3 -8 10 -15 16 -15 7 0 8 6 1 18 -6 10 -6 24 -1 32 5 8 7 18 4 22
-3 4 0 17 6 29 10 18 9 20 -6 17 -9 -1 -19 -9 -22 -17 -3 -8 0 -11 6 -7 5 3 9
-2 8 -12 -1 -18 -24 -38 -33 -28 -4 3 -1 6 4 6 6 0 10 8 8 18 -2 9 -4 22 -5
27 -1 6 -6 1 -11 -10 l-9 -20 3 20 c2 11 9 19 15 17 7 -1 12 2 12 8 0 5 8 10
18 11 13 0 14 2 2 6 -18 6 -40 33 -40 47 1 6 6 1 13 -11 12 -22 13 -22 25 -3
7 11 8 20 2 20 -5 0 -24 9 -42 21 l-33 20 35 -6 c26 -5 31 -3 20 4 -13 9 -12
11 4 11 16 0 16 2 -5 19 -20 16 -21 21 -10 35 7 9 10 16 6 16 -4 0 -2 7 5 15
11 13 10 14 -4 9 -9 -3 -16 -10 -16 -14 0 -4 -7 -11 -16 -14 -14 -5 -15 -4 -4
9 7 8 8 15 3 15 -5 0 -10 7 -10 15 0 8 4 12 9 9 4 -3 8 -1 8 5 0 5 -5 13 -10
16 -8 5 -7 11 0 20 7 8 9 19 5 25 -3 5 0 10 8 10 24 0 27 -12 5 -30 -18 -14
-19 -18 -5 -23 11 -4 14 -2 10 9 -5 13 8 19 30 15 5 -1 0 10 -10 23 -12 17
-24 23 -37 20 -12 -4 -16 -2 -12 5 4 6 13 11 20 11 7 0 13 7 13 15 0 11 -4 12
-14 3 -7 -6 -16 -8 -20 -4 -3 3 -1 6 6 6 7 0 10 4 6 9 -3 5 -1 12 5 16 5 3 10
14 9 23 0 14 -2 13 -9 -3 -5 -11 -9 -16 -9 -12 -1 4 -9 3 -19 -2 -14 -7 -19
-6 -19 3 0 7 7 13 16 12 10 -1 15 6 13 17 -2 9 3 17 10 17 10 0 10 2 -1 9 -8
5 -11 16 -7 26 5 15 9 15 24 4 16 -13 16 -12 1 6 -23 28 -42 66 -32 64 20 -3
27 2 13 12 -11 8 -12 12 -2 16 6 2 9 9 6 15 -4 6 -13 1 -21 -13 -13 -22 -12
-11 3 26 3 8 1 15 -6 15 -6 0 -8 5 -4 11 5 8 -1 10 -20 7 -17 -4 -25 -1 -23 6
5 12 10 12 45 1 21 -6 22 -4 16 22 -4 15 -14 37 -23 47 -9 11 -11 16 -4 13 7
-5 9 0 6 14 -4 16 -8 17 -14 7 -6 -9 -9 -7 -9 10 0 12 6 22 14 22 9 0 12 7 9
20 -4 14 -1 19 8 17 8 -2 11 -2 7 0 -5 3 -8 11 -8 18 0 7 -6 15 -14 18 -7 3
-16 15 -19 26 -3 12 -1 19 4 15 5 -3 9 -1 9 5 0 5 -6 11 -12 14 -10 3 -9 8 2
22 14 17 13 18 -2 13 -13 -5 -16 -1 -13 18 2 19 -1 24 -14 20 -13 -5 -12 -3 2
8 18 14 7 33 -12 21 -5 -3 -12 -1 -16 5 -4 6 6 10 24 10 16 0 33 4 36 10 3 5
0 7 -9 4 -23 -9 -39 5 -25 22 6 7 15 12 18 9 4 -2 8 2 8 10 0 10 -5 11 -18 4
-27 -14 -35 -11 -13 7 10 8 13 13 7 9 -9 -4 -11 2 -7 23 4 18 1 32 -6 37 -8 5
-5 11 8 21 19 13 23 36 9 50 -3 4 -5 -3 -2 -14 2 -12 -3 -23 -11 -26 -10 -4
-12 -2 -8 6 4 6 9 29 12 51 5 44 -12 64 -38 44 -13 -11 -13 -10 -1 5 7 10 18
15 23 12 5 -3 8 2 6 12 -2 11 2 18 10 16 6 -1 12 2 12 6 0 17 -13 21 -31 11
-17 -9 -18 -6 -13 33 6 40 5 42 -12 28 -18 -14 -18 -14 0 7 17 20 17 23 2 29
-9 3 -16 16 -15 28 0 20 1 20 8 1 8 -19 8 -19 19 2 9 17 9 24 0 29 -7 5 -8 3
-3 -6 6 -9 4 -11 -5 -5 -10 6 -10 10 2 19 13 10 14 16 4 34 -7 13 -15 20 -19
17 -4 -2 -3 1 3 7 14 17 13 35 -2 20 -19 -19 -28 -14 -28 14 0 14 4 23 10 19
5 -3 6 -13 3 -23 -6 -15 -3 -14 16 2 l22 20 -28 12 c-15 7 -22 13 -14 13 8 1
11 7 7 17 -3 8 -2 12 4 9 6 -3 10 1 10 9 0 9 6 13 14 10 8 -3 17 -1 21 5 4 7
0 8 -11 4 -13 -5 -15 -3 -9 7 5 8 4 11 -3 6 -6 -3 -13 3 -17 14 -3 11 -12 20
-18 21 -7 0 -3 4 8 9 18 8 18 9 -5 9 -19 1 -22 3 -10 10 8 6 19 7 24 4 5 -4 0
7 -12 24 -16 23 -19 34 -11 39 8 5 9 3 4 -7 -6 -11 -5 -11 5 -2 15 14 3 36
-15 29 -8 -3 -12 2 -10 12 2 9 4 22 4 27 1 6 6 3 11 -5 5 -8 10 -10 10 -5 0 6
-5 16 -12 23 -7 7 -8 12 -2 12 5 0 8 20 6 44 -3 37 -7 44 -20 39 -10 -4 -14
-3 -10 2 4 4 2 15 -5 23 -8 11 -8 14 0 9 15 -9 25 6 27 45 2 27 1 28 -11 12
-7 -10 -13 -13 -13 -5 0 7 -6 9 -12 6 -7 -4 -4 1 6 9 11 9 14 16 7 16 -7 0 -9
5 -6 10 4 6 11 8 16 5 5 -4 9 -2 9 4 0 15 -18 23 -25 11 -3 -5 -11 -10 -17
-10 -7 0 -7 5 1 14 6 7 9 20 5 29 -3 8 -1 18 5 22 6 3 11 11 11 16 0 6 -5 7
-12 3 -7 -4 -8 -3 -4 4 4 7 2 12 -4 12 -7 0 -5 6 4 15 8 8 21 15 28 15 10 0
10 2 -1 9 -8 5 -20 7 -28 4 -9 -4 -11 0 -7 11 3 9 11 16 18 17 6 0 2 4 -9 9
-17 7 -17 9 -2 9 18 1 25 21 7 21 -12 0 -9 38 3 58 6 8 4 11 -4 10 -8 -2 -14
9 -15 27 -2 16 -7 31 -11 32 -10 4 -8 81 2 91 5 4 5 0 0 -8 -5 -8 -4 -12 0 -7
15 13 14 36 0 30 -10 -3 -13 4 -10 29 3 24 2 29 -5 18 -8 -13 -10 -12 -10 3 0
9 7 17 16 17 8 0 12 5 9 10 -4 6 -11 8 -16 5 -5 -4 -6 7 -3 25 5 24 3 30 -11
30 -17 0 -17 1 1 18 18 16 29 52 15 50 -21 -2 -22 5 0 29 l24 27 -28 -18 c-31
-19 -43 -16 -33 10 4 9 12 14 22 10 8 -3 12 -2 9 4 -3 6 -1 10 4 10 6 0 11 5
11 11 0 8 -4 8 -15 -1 -11 -10 -18 -9 -30 4 -15 14 -15 16 -1 16 9 0 16 5 16
11 0 5 -6 7 -12 4 -7 -4 -4 1 6 9 19 15 19 16 1 16 -10 0 -15 3 -12 7 4 3 2
12 -3 18 -7 9 -5 17 7 26 9 8 14 9 11 4 -4 -6 -2 -17 3 -25 7 -12 8 -11 6 5
-5 37 -17 48 -35 33 -11 -8 -10 -4 3 11 11 14 15 21 8 18 -6 -4 -14 -3 -18 3
-3 5 0 10 7 10 8 0 9 3 3 8 -13 9 -17 32 -6 32 5 0 11 -6 14 -12 2 -7 4 11 3
40 -1 44 -3 49 -14 35 -8 -11 -12 -12 -12 -4 0 8 -6 11 -16 7 -10 -4 -13 -2
-7 7 10 16 11 57 1 57 -12 0 -10 38 2 45 6 4 18 1 27 -7 12 -9 15 -9 9 0 -4 7
-2 12 6 12 10 0 9 3 -2 9 -8 6 -18 7 -24 4 -5 -3 -6 -1 -2 6 10 15 -3 53 -15
46 -5 -4 -10 -3 -10 2 -6 34 -5 53 1 53 5 0 6 9 3 20 -3 13 0 20 8 20 10 0 10
3 2 11 -6 6 -9 18 -6 27 4 10 2 13 -5 8 -6 -3 -14 -1 -18 5 -5 8 -3 9 6 4 10
-6 12 -4 7 8 -4 12 -2 14 9 10 14 -5 14 -3 3 16 -8 11 -25 25 -39 30 -22 8
-22 10 -5 11 11 1 27 1 34 0 13 -2 13 0 0 16 -12 16 -12 17 3 11 10 -3 20 -2
23 4 4 5 1 8 -7 7 -8 -2 -13 6 -12 20 1 21 -1 21 -22 7 -29 -19 -45 -20 -19
-1 21 15 27 63 8 70 -9 4 -9 10 0 30 6 13 15 22 19 20 5 -3 8 -3 8 -1 0 3 -15
15 -32 27 -24 16 -27 20 -10 15 16 -5 22 -2 22 9 0 9 -4 16 -9 16 -4 0 -8 8
-8 18 0 62 -3 77 -14 62 -8 -12 -9 -9 -4 10 11 44 12 70 4 64 -5 -3 -9 -2 -9
3 0 13 14 30 30 36 10 4 8 6 -7 6 -28 1 -34 19 -16 54 7 15 9 27 4 27 -5 0 -7
10 -5 23 2 12 2 16 -2 10 -7 -16 -34 -17 -34 -2 0 5 5 7 10 4 6 -3 10 1 10 10
0 13 4 14 23 4 20 -11 21 -11 8 4 -7 10 -20 17 -27 17 -17 0 -18 12 -1 29 9
10 9 15 0 18 -8 3 -9 12 -3 29 5 13 6 23 2 23 -18 -3 -32 2 -32 12 0 5 5 7 10
4 7 -4 10 6 8 29 -1 23 -6 32 -12 26 -6 -6 -14 -3 -22 8 -18 22 -17 32 1 32 8
0 12 -6 9 -14 -4 -11 0 -13 15 -9 25 6 28 33 4 34 -14 0 -13 2 5 9 22 9 31 44
13 54 -4 3 -7 -7 -5 -22 4 -27 4 -27 -6 2 -5 16 -6 34 -3 39 3 6 1 7 -5 3 -6
-3 -13 -2 -17 4 -4 6 -11 7 -17 4 -7 -4 -8 -2 -4 5 4 6 13 8 19 4 7 -4 5 2 -3
12 -9 11 -10 16 -2 11 8 -5 12 0 12 14 0 12 4 18 10 15 6 -3 7 1 4 9 -3 9 -10
13 -15 10 -5 -3 -9 0 -9 5 0 13 -8749 13 -8849 0z"/>
</g>
</svg>
