<svg width="25" height="25" viewBox="0 0 25 25" fill="none" xmlns="http://www.w3.org/2000/svg">
<g clip-path="url(#clip0_676_3207)">
<path d="M6.36523 18.2485L4.36523 17.1485V14.6485" stroke="#0ABC8C" stroke-width="2" stroke-linecap="round" stroke-linejoin="round"/>
<path d="M4.36523 10.6485V8.14853L6.36523 7.04853" stroke="#0ABC8C" stroke-width="2" stroke-linecap="round" stroke-linejoin="round"/>
<path d="M10.3652 4.74853L12.3652 3.64853L14.3652 4.74853" stroke="#0ABC8C" stroke-width="2" stroke-linecap="round" stroke-linejoin="round"/>
<path d="M18.3652 7.04853L20.3652 8.14853V10.6485" stroke="#0ABC8C" stroke-width="2" stroke-linecap="round" stroke-linejoin="round"/>
<path d="M20.3652 14.6485V17.1485L18.3652 18.2685" stroke="#0ABC8C" stroke-width="2" stroke-linecap="round" stroke-linejoin="round"/>
<path d="M14.3652 20.5485L12.3652 21.6485L10.3652 20.5485" stroke="#0ABC8C" stroke-width="2" stroke-linecap="round" stroke-linejoin="round"/>
<path d="M12.3652 12.6485L14.3652 11.5485" stroke="#0ABC8C" stroke-width="2" stroke-linecap="round" stroke-linejoin="round"/>
<path d="M18.3652 9.24853L20.3652 8.14853" stroke="#0ABC8C" stroke-width="2" stroke-linecap="round" stroke-linejoin="round"/>
<path d="M12.3652 12.6485V15.1485" stroke="#0ABC8C" stroke-width="2" stroke-linecap="round" stroke-linejoin="round"/>
<path d="M12.3652 19.1485V21.6485" stroke="#0ABC8C" stroke-width="2" stroke-linecap="round" stroke-linejoin="round"/>
<path d="M12.3652 12.6485L10.3652 11.5285" stroke="#0ABC8C" stroke-width="2" stroke-linecap="round" stroke-linejoin="round"/>
<path d="M6.36523 9.24853L4.36523 8.14853" stroke="#0ABC8C" stroke-width="2" stroke-linecap="round" stroke-linejoin="round"/>
</g>
<defs>
<clipPath id="clip0_676_3207">
<rect width="24" height="24" fill="white" transform="translate(0.365234 0.648529)"/>
</clipPath>
</defs>
</svg>
