<svg width="200" height="209" viewBox="0 0 200 209" fill="none" xmlns="http://www.w3.org/2000/svg">
<g clip-path="url(#clip0_206_142)">
<path d="M176.753 207.224H12.9347C12.9347 207.224 -2.0609 190.212 7.23367 159.608C15.0155 133.988 31.74 127.324 24.2566 97.0057C18.3595 73.0609 23.3655 34.5994 72.6699 20.0136C98.6132 12.3387 146.594 19.5391 148.916 45.8945C152.275 84.0219 153.407 102.564 183.839 115.123C222.381 131.034 176.753 207.224 176.753 207.224Z" fill="#FDFFF9"/>
<path d="M189.269 206.255H1.96484C1.39516 206.255 0.93335 206.717 0.93335 207.286V207.58C0.93335 208.15 1.39516 208.612 1.96484 208.612H189.269C189.838 208.612 190.3 208.15 190.3 207.58V207.286C190.3 206.717 189.838 206.255 189.269 206.255Z" fill="url(#paint0_linear_206_142)"/>
<path d="M125.178 144.196C125.178 144.196 127.831 142.81 128.451 142.129" stroke="#111111" stroke-width="0.445569" stroke-miterlimit="10" stroke-linecap="round"/>
<path d="M132.174 91.5409C128.731 91.6166 130.07 90.4871 130.458 89.587C131.815 86.4413 130.81 84.385 128.411 84.7459C125.256 85.2205 125.091 84.1288 125.63 83.2132C128.123 78.9803 123.402 76.7881 121.241 77.3695C118.002 78.2384 117.345 79.1518 117.501 78.0891C118.298 72.7423 108.465 69.2245 105.506 72.7846C103.474 75.2353 101.554 74.1548 100.774 74.5045C94.0907 77.5054 94.514 86.6752 97.7644 92.6013C99.8252 96.3597 101.26 95.7337 112.223 96.6114C118.735 97.1372 128.709 97.0325 131.648 96.8208C135.05 96.578 134.967 91.4762 132.174 91.5409Z" fill="url(#paint1_linear_206_142)"/>
<path d="M81.5257 133.222C82.4814 129.06 83.4438 119.962 85.3798 115.415C87.5765 113.971 96.9936 118.382 96.9936 118.382L92.5156 138.771C92.3899 139.296 92.1605 139.79 91.8408 140.225C91.5212 140.659 91.1178 141.026 90.6544 141.302C90.191 141.578 89.677 141.759 89.1427 141.834C88.6083 141.908 88.0644 141.875 87.5431 141.737L84.4241 138.045C83.4095 137.774 82.5399 137.12 81.999 136.22C81.4581 135.32 81.2884 134.245 81.5257 133.222Z" fill="#FF6F61"/>
<path d="M123.427 114.399C123.427 114.399 126.905 133.897 129.039 134.035C130.237 134.061 131.434 133.942 132.603 133.683C135.945 133.014 137.95 129.338 136.859 125.917C135.014 120.109 132.456 112.416 132.456 112.416L123.427 114.399Z" fill="#FF6F61"/>
<path d="M90.0294 104.32C94.6276 99.5655 101.209 97.6763 109.784 98.3045C113.219 98.5541 124.503 99.5388 128.662 104.565C137.837 115.651 135.622 118.669 135.622 118.669C135.622 118.669 130.547 123.535 124.381 122.1C124.294 125.538 125.47 150.296 125.47 150.296L91.5042 144.41L93.6117 126.534L90.8915 122.096L92.2104 119.057L83.0607 115.731C83.0607 115.731 86.8413 107.619 90.0294 104.32Z" fill="url(#paint2_linear_206_142)"/>
<path d="M115.222 84.7749C114.979 89.8366 108.242 93.7709 104.365 93.586C100.489 93.4011 99.8251 89.2128 100.072 84.1511C100.32 79.0894 101.977 77.1289 105.896 76.5631C109.735 76.0083 115.456 79.7132 115.222 84.7749Z" fill="#FF6F61"/>
<path d="M104.604 90.701L103.936 99.2893C103.842 100.379 106.564 102.564 109.207 102.564C113.952 102.564 114.553 99.6436 114.473 98.621L113.428 89.0413L104.604 90.701Z" fill="#FF6F61"/>
<path d="M102.77 85.0601C102.77 85.3988 102.585 85.6772 102.343 85.6817C102.1 85.6862 101.897 85.4144 101.897 85.0757C101.897 84.7371 102.082 84.4586 102.325 84.4542C102.568 84.4497 102.764 84.7215 102.77 85.0601Z" fill="#111111"/>
<path d="M106.928 84.9888C106.928 85.3274 106.743 85.6059 106.5 85.6103C106.257 85.6148 106.054 85.343 106.054 85.0043C106.054 84.6657 106.239 84.385 106.482 84.3805C106.725 84.3761 106.921 84.6479 106.928 84.9888Z" fill="#111111"/>
<path d="M105.506 89.5358C103.323 90.0661 102.483 89.3264 102.483 89.3264C102.483 89.3264 102.323 90.7478 103.804 90.8859C105.286 91.024 105.506 89.5358 105.506 89.5358Z" fill="white"/>
<path d="M103.991 85.049C103.67 85.8176 102.877 87.2211 103.35 87.7224C103.822 88.2236 104.773 87.9674 104.773 87.9674" stroke="#111111" stroke-width="0.445569" stroke-miterlimit="10" stroke-linecap="round"/>
<path d="M101.463 83.866C101.463 83.866 102.354 83.2444 103.104 83.866" stroke="#111111" stroke-width="0.445569" stroke-miterlimit="10" stroke-linecap="round"/>
<path d="M105.442 83.8347C105.442 83.8347 106.965 83.1262 107.447 83.8748" stroke="#111111" stroke-width="0.445569" stroke-miterlimit="10" stroke-linecap="round"/>
<path d="M104.357 93.586C104.357 93.586 107.449 94.2365 110.41 91.5364" stroke="#111111" stroke-width="0.445569" stroke-miterlimit="10" stroke-linecap="round"/>
<path d="M98.4683 83.7278C98.5352 84.1065 107.315 81.6514 108.975 79.662C110.231 78.156 111.203 81.6336 111.169 82.2418C111.027 84.6635 113.54 90.115 113.778 92.2983C115.148 92.9912 118.653 88.0008 118.272 85.0489C117.891 82.097 115.531 76.9396 113.555 76.5074C111.579 76.0752 111.693 75.9816 107.384 75.79C103.076 75.5984 97.6084 78.8109 98.4683 83.7278Z" fill="url(#paint3_linear_206_142)"/>
<path d="M114.193 86.6195C114.164 87.0091 114.022 87.3818 113.783 87.691C113.545 88.0002 113.22 88.2324 112.85 88.3584C112.481 88.4845 112.082 88.4989 111.704 88.4C111.326 88.301 110.986 88.0929 110.726 87.8018C110.465 87.5106 110.296 87.1492 110.24 86.7627C110.183 86.3762 110.242 85.9816 110.408 85.6282C110.575 85.2747 110.841 84.9781 111.175 84.7752C111.509 84.5724 111.895 84.4723 112.286 84.4875C112.551 84.502 112.811 84.5687 113.05 84.6837C113.29 84.7988 113.504 84.9599 113.681 85.158C113.858 85.356 113.995 85.587 114.082 85.8378C114.17 86.0886 114.208 86.3542 114.193 86.6195Z" fill="#FF6F61"/>
<path d="M111.229 85.8644C111.229 85.8644 113.047 85.0935 113.397 86.4213" stroke="#111111" stroke-width="0.445569" stroke-miterlimit="10" stroke-linecap="round"/>
<path d="M111.851 86.6685L112.435 85.7195" stroke="#111111" stroke-width="0.445569" stroke-miterlimit="10" stroke-linecap="round"/>
<path d="M89.8419 140.313C91.9584 140.6 127.537 140.313 127.537 140.313L109.122 151.247L89.8419 140.313Z" fill="url(#paint4_linear_206_142)"/>
<path d="M94.084 114.766L92.3374 119.057" stroke="#111111" stroke-width="0.445569" stroke-miterlimit="10" stroke-linecap="round"/>
<path d="M109.63 115.731L107.623 122.339L112.054 127.496" stroke="#111111" stroke-width="0.445569" stroke-miterlimit="10" stroke-linecap="round"/>
<path d="M120.368 114.358L122.578 121.788L124.501 122.096" stroke="#111111" stroke-width="0.445569" stroke-miterlimit="10" stroke-linecap="round"/>
<path d="M101.875 100.067C101.875 100.067 103.991 108.334 114.874 103.271" stroke="#111111" stroke-width="0.445569" stroke-miterlimit="10" stroke-linecap="round"/>
<path d="M132.795 116.419C132.795 116.419 131.387 119.741 121.879 119.057" stroke="#111111" stroke-width="0.445569" stroke-miterlimit="10" stroke-linecap="round"/>
<path d="M135.214 132.195C125.795 134.968 98.9318 151.089 98.9318 151.089C98.9318 151.089 98.9451 160.143 106.322 162.03C121.727 157.365 140.693 155.926 148.194 148.83C153.893 143.432 146.895 128.746 135.214 132.195Z" fill="url(#paint5_linear_206_142)"/>
<path d="M110.463 150.456C110.463 150.456 125.566 142.717 132.795 140.124" stroke="#FAF7EF" stroke-width="0.445569" stroke-miterlimit="10" stroke-linecap="round"/>
<path d="M135.232 134.048L134.301 136.098C130.291 136.67 108.543 148.467 108.543 148.467" stroke="#111111" stroke-width="0.445569" stroke-miterlimit="10" stroke-linecap="round"/>
<path d="M111.492 134.445C111.492 134.445 120.038 127.984 127.266 125.431C129.814 126.077 135.215 132.195 135.215 132.195L114.832 141.329L111.492 134.445Z" fill="#FF6F61"/>
<path d="M117.283 140.237C117.283 140.237 112.814 144.47 109.543 146.074C108.077 146.791 105.644 147.522 105.364 146.627C105.221 146.165 105.564 145.564 105.564 145.564C105.564 145.564 103.688 145.934 103.441 145.341C103.122 144.564 103.902 143.724 103.902 143.724C103.902 143.724 102.418 143.755 102.305 143.309C102.082 142.449 103.731 141.565 103.731 141.565C103.731 141.565 102.519 141.509 102.521 140.692C102.521 140.215 108.832 136.619 108.832 136.619C108.832 136.619 104.822 137.844 105.11 136.795C105.524 135.289 108.652 134.471 110.728 134.177C112.22 133.939 113.695 133.614 115.148 133.202L117.283 140.237Z" fill="#FF6F61"/>
<path d="M103.731 141.556L106.689 140.422L108.543 139.068" stroke="#111111" stroke-width="0.445569" stroke-miterlimit="10"/>
<path d="M103.902 143.715L106.052 142.98L108.975 141.26" stroke="#111111" stroke-width="0.445569" stroke-miterlimit="10"/>
<path d="M105.564 145.564L107.516 144.753L109.681 143.254" stroke="#111111" stroke-width="0.445569" stroke-miterlimit="10"/>
<path d="M84.2013 114.71C84.2013 114.71 93.7476 127.607 92.3374 135.14C93.2107 145.285 79.2933 141.861 78.7675 139.063L75.6486 118.859L84.2013 114.71Z" fill="#FF6F61"/>
<path d="M90.0805 114.43L70.6202 114.766C70.0633 114.776 69.5219 114.583 69.0968 114.223C68.6717 113.863 68.3921 113.361 68.3099 112.81L66.4185 100.082C66.3702 99.7596 66.3915 99.4302 66.4808 99.1163C66.57 98.8024 66.7253 98.5111 66.9362 98.262C67.1471 98.013 67.4088 97.8118 67.7037 97.672C67.9986 97.5322 68.32 97.4569 68.6464 97.4513L88.1088 97.1105C88.6657 97.1006 89.2072 97.2936 89.6322 97.6535C90.0573 98.0134 90.337 98.5156 90.4191 99.0665L92.3105 111.794C92.3591 112.117 92.3381 112.447 92.2489 112.762C92.1596 113.076 92.0042 113.368 91.7931 113.618C91.5819 113.867 91.3199 114.069 91.0245 114.209C90.7292 114.349 90.4073 114.424 90.0805 114.43Z" fill="#111111"/>
<path d="M83.9184 114.042C83.4995 112.467 83.3146 111.19 82.8379 109.598C82.4948 108.459 80.9264 108.521 80.8105 108.773C80.6947 109.025 81.8086 113.452 81.5947 113.585C81.3808 113.719 81.2539 113.612 81.0177 113.467C80.5586 112.276 80.1783 111.055 79.8793 109.814C79.5919 108.622 77.7651 108.201 77.9433 109.277C78.1282 110.391 78.8344 112.037 79.2488 113.955C79.2688 114.049 78.9725 114.285 78.8032 114.156C78.6339 114.026 77.7606 112.262 77.266 110.535C77.0054 109.624 75.2275 109.455 75.2944 109.925C75.4214 110.816 75.9627 112.217 76.4395 114.352C76.4885 114.563 75.956 114.726 75.809 114.191C75.6731 113.695 75.4013 113.282 75.1406 112.077C74.9802 111.306 73.4519 111.462 73.4943 111.854C73.7171 113.842 75.6575 118.761 75.6798 119.028C75.7021 119.295 83.6399 117.965 83.8493 117.081C84.0663 116.082 84.0897 115.05 83.9184 114.042Z" fill="#FF6F61"/>
<path d="M84.6535 117.558L86.0794 114.499L83.8894 114.358L83.8203 116.261L84.6535 117.558Z" fill="#FF6F61"/>
<path d="M85.0813 116.419L84.4775 118.052C84.4775 118.052 87.6634 130.002 88.4275 132.44" stroke="#111111" stroke-width="0.445569" stroke-miterlimit="10" stroke-linecap="round"/>
<path d="M110.969 158.401C110.969 158.401 116.984 162.952 120.413 162.411C123.841 161.87 127.702 161.58 127.504 159.737C127.306 157.895 113.319 150.717 113.319 150.717L110.969 158.401Z" fill="url(#paint6_linear_206_142)"/>
<path d="M78.4111 134.714C88.0644 136.497 116.445 149.772 116.445 149.772C116.445 149.772 117.363 158.782 110.22 161.417C94.4182 158.363 75.2587 157.781 67.0781 151.503C60.8446 146.72 66.432 132.493 78.4111 134.714Z" fill="url(#paint7_linear_206_142)"/>
<path d="M96.4723 141.222L116.445 149.777C116.445 149.777 116.652 151.735 116.483 152.408" stroke="#111111" stroke-width="0.445569" stroke-miterlimit="10" stroke-linecap="round"/>
<path d="M82.566 137.851L107.491 148.077C108.155 148.348 108.753 148.757 109.245 149.279C109.737 149.8 110.112 150.42 110.344 151.099C110.576 151.777 110.661 152.497 110.591 153.21C110.522 153.924 110.3 154.614 109.942 155.235C108.703 157.351 106.899 159.508 104.417 160.412" stroke="#FAF7EF" stroke-width="0.445569" stroke-miterlimit="10" stroke-linecap="round"/>
<path d="M73.5098 181.601L137.83 181.579C145.077 181.579 150.952 186.984 150.954 193.654C150.944 195.267 150.597 196.86 149.936 198.332C149.274 199.803 148.313 201.12 147.113 202.198C144.576 204.501 141.265 205.765 137.839 205.74L72.9039 205.762C72.9039 205.762 71.9125 205.635 72.9395 205.397C75.2012 204.881 77.29 203.786 79.0015 202.22C80.2008 201.142 81.1617 199.825 81.8227 198.354C82.4837 196.882 82.8302 195.289 82.8401 193.676C82.8401 188.258 78.9592 183.671 73.619 182.145C72.387 181.791 73.5098 181.601 73.5098 181.601Z" fill="#EEEEEE"/>
<path d="M115.382 181.586H143.535C150.78 181.586 156.657 186.991 156.66 193.661C156.65 195.274 156.303 196.867 155.641 198.338C154.98 199.81 154.019 201.126 152.819 202.205C150.281 204.508 146.969 205.772 143.542 205.747H115.391C118.818 205.771 122.128 204.506 124.666 202.202C125.866 201.125 126.828 199.808 127.489 198.337C128.151 196.865 128.497 195.272 128.506 193.659C128.504 186.991 122.629 181.584 115.382 181.586Z" fill="url(#paint8_linear_206_142)"/>
<path d="M70.8877 181.602L115.057 181.588C122.304 181.588 128.179 186.991 128.181 193.661C128.172 195.274 127.825 196.867 127.164 198.339C126.503 199.81 125.541 201.127 124.34 202.205C121.803 204.508 118.493 205.773 115.066 205.749L70.8877 205.762" stroke="#111111" stroke-width="0.445569" stroke-miterlimit="10" stroke-linecap="round"/>
<path d="M112.996 202.176L82.7487 202.187" stroke="#F6F6F6" stroke-width="0.445569" stroke-linecap="round" stroke-linejoin="round"/>
<path d="M105.029 198.448L85.2039 198.455" stroke="#F6F6F6" stroke-width="0.445569" stroke-linecap="round" stroke-linejoin="round"/>
<path d="M113.994 186.757L83.8938 186.768" stroke="#F6F6F6" stroke-width="0.445569" stroke-linecap="round" stroke-linejoin="round"/>
<path d="M145.561 181.354L81.2404 181.376C73.9933 181.376 68.1184 175.974 68.1162 169.302C68.1258 167.689 68.4724 166.096 69.1339 164.625C69.7953 163.154 70.7569 161.837 71.957 160.76C74.4942 158.457 77.8048 157.191 81.2315 157.216L146.167 157.193C146.167 157.193 147.158 157.32 146.129 157.559C143.868 158.075 141.78 159.17 140.069 160.736C138.87 161.814 137.909 163.131 137.248 164.602C136.587 166.073 136.24 167.666 136.23 169.279C136.23 174.7 140.111 179.285 145.451 180.813C146.683 181.165 145.561 181.354 145.561 181.354Z" fill="#EEEEEE"/>
<path d="M103.688 181.37H75.535C68.29 181.37 62.413 175.965 62.4108 169.295C62.4209 167.682 62.7677 166.089 63.4291 164.618C64.0905 163.146 65.0518 161.829 66.2516 160.751C68.7896 158.449 72.0998 157.185 75.5261 157.209H103.679C100.253 157.184 96.9423 158.448 94.4048 160.751C93.2047 161.829 92.2431 163.145 91.5817 164.616C90.9203 166.087 90.5736 167.68 90.564 169.293C90.5663 175.976 96.4411 181.372 103.688 181.37Z" fill="#FFB347"/>
<path d="M148.194 181.354L104.027 181.37C96.7796 181.37 90.9048 175.965 90.9026 169.295C90.9096 167.683 91.2533 166.09 91.9116 164.619C92.57 163.148 93.5284 161.83 94.7256 160.751C97.2625 158.448 100.573 157.183 104 157.209L148.169 157.193" stroke="#111111" stroke-width="0.445569" stroke-miterlimit="10" stroke-linecap="round"/>
<path d="M106.074 160.78L136.322 160.771" stroke="#F6F6F6" stroke-width="0.445569" stroke-linecap="round" stroke-linejoin="round"/>
<path d="M114.041 164.507L133.867 164.501" stroke="#F6F6F6" stroke-width="0.445569" stroke-linecap="round" stroke-linejoin="round"/>
<path d="M105.076 176.199H135.177" stroke="#F6F6F6" stroke-width="0.445569" stroke-linecap="round" stroke-linejoin="round"/>
<path d="M87.6656 86.3077L82.2742 73.5711V58.9074C82.2742 57.5526 81.736 56.2532 80.778 55.2952C79.8199 54.3372 78.5206 53.799 77.1657 53.799H46.3635C45.0093 53.8001 43.7108 54.3388 42.7534 55.2966C41.796 56.2544 41.2579 57.5531 41.2573 58.9074V75.3935C41.2573 76.0645 41.3895 76.729 41.6464 77.3489C41.9033 77.9688 42.2797 78.5321 42.7543 79.0065C43.2289 79.4809 43.7924 79.8571 44.4124 80.1137C45.0324 80.3703 45.697 80.5022 46.368 80.5019H76.0741L86.1172 87.553C86.3007 87.6822 86.5212 87.7482 86.7454 87.7411C86.9697 87.734 87.1855 87.654 87.3604 87.5134C87.5352 87.3728 87.6595 87.1791 87.7146 86.9616C87.7696 86.7441 87.7524 86.5145 87.6656 86.3077Z" fill="white"/>
<path d="M54.9005 67.8525C55.2888 66.2072 54.2698 64.5585 52.6244 64.1702C50.979 63.7818 49.3304 64.8008 48.942 66.4462C48.5537 68.0916 49.5727 69.7402 51.2181 70.1286C52.8635 70.5169 54.5121 69.4979 54.9005 67.8525Z" fill="url(#paint9_linear_206_142)"/>
<path d="M64.7884 67.6453C65.0592 65.9766 63.926 64.4042 62.2573 64.1333C60.5886 63.8625 59.0162 64.9957 58.7453 66.6644C58.4745 68.3331 59.6077 69.9055 61.2764 70.1764C62.9451 70.4472 64.5175 69.3141 64.7884 67.6453Z" fill="url(#paint10_linear_206_142)"/>
<path d="M73.7675 69.3167C74.9629 68.1213 74.963 66.1831 73.7675 64.9877C72.5721 63.7923 70.634 63.7923 69.4385 64.9877C68.2431 66.1831 68.2431 68.1213 69.4385 69.3167C70.634 70.5121 72.5721 70.5121 73.7675 69.3167Z" fill="url(#paint11_linear_206_142)"/>
<path d="M183.707 85.749C189.325 83.4221 191.993 76.9816 189.666 71.3638C187.339 65.746 180.898 63.0782 175.281 65.4052C169.663 67.7322 166.995 74.1727 169.322 79.7904C171.649 85.4082 178.089 88.076 183.707 85.749Z" stroke="url(#paint12_linear_206_142)" stroke-width="0.445569" stroke-linecap="round" stroke-linejoin="round"/>
<path d="M172.386 71.3878L179.493 75.5762L183.946 73.482" stroke="url(#paint13_linear_206_142)" stroke-width="0.445569" stroke-linecap="round" stroke-linejoin="round"/>
<path d="M98.8872 51.3194C98.7489 51.3194 98.6163 51.2645 98.5186 51.1667C98.4208 51.0689 98.3659 50.9363 98.3659 50.7981V50.6778C98.3591 50.3211 98.4149 49.9659 98.5308 49.6285C98.6502 49.3076 98.8302 49.0126 99.061 48.7596C99.3509 48.4433 99.6743 48.1594 100.026 47.913C100.328 47.7032 100.617 47.474 100.89 47.2269C101.083 47.0546 101.244 46.8503 101.367 46.6231C101.472 46.4107 101.525 46.1762 101.521 45.9392C101.529 45.7721 101.495 45.6056 101.422 45.4552C101.349 45.3048 101.239 45.1754 101.102 45.0792C100.754 44.8639 100.347 44.7612 99.9388 44.7851C99.435 44.7859 98.9345 44.8648 98.455 45.0191C98.2322 45.0903 98.0094 45.1728 97.7867 45.2641C97.5626 45.3574 97.3114 45.3621 97.0839 45.2773C96.8565 45.1926 96.6697 45.0246 96.5613 44.8074L96.4589 44.598C96.3999 44.4822 96.3653 44.3555 96.3573 44.2258C96.3493 44.0961 96.368 43.9661 96.4123 43.8439C96.4565 43.7217 96.5254 43.6099 96.6147 43.5154C96.704 43.421 96.8117 43.3458 96.9312 43.2947C97.252 43.1609 97.58 43.0449 97.9136 42.9472C98.6379 42.74 99.3883 42.6387 100.141 42.6464C101.383 42.6464 102.344 42.9434 103.024 43.5375C103.353 43.8145 103.615 44.1616 103.792 44.5533C103.968 44.9451 104.055 45.3714 104.045 45.801C104.057 46.2336 103.981 46.6642 103.822 47.0664C103.657 47.4385 103.421 47.7746 103.127 48.0556C102.764 48.404 102.376 48.7249 101.966 49.0158C101.688 49.2153 101.421 49.4302 101.166 49.6597C101.004 49.8023 100.875 49.9787 100.788 50.1765C100.716 50.3758 100.682 50.5865 100.687 50.7981C100.687 50.9363 100.632 51.0689 100.535 51.1667C100.437 51.2645 100.304 51.3194 100.166 51.3194H98.8872ZM98.0874 54.2914C98.0874 53.7478 98.2359 53.3653 98.533 53.144C98.8479 52.9198 99.2271 52.8041 99.6135 52.8143C99.9949 52.8056 100.369 52.9213 100.678 53.144C100.975 53.3638 101.124 53.7463 101.124 54.2914C101.124 54.8127 100.975 55.1825 100.678 55.4231C100.373 55.6571 99.9977 55.7797 99.6135 55.7706C99.2242 55.7815 98.8429 55.6588 98.533 55.4231C98.2367 55.1914 98.0874 54.8127 98.0874 54.2914Z" fill="url(#paint14_linear_206_142)"/>
<path d="M100.026 59.3998C105.655 59.3998 110.218 54.8365 110.218 49.2074C110.218 43.5783 105.655 39.015 100.026 39.015C94.3965 39.015 89.8333 43.5783 89.8333 49.2074C89.8333 54.8365 94.3965 59.3998 100.026 59.3998Z" stroke="url(#paint15_linear_206_142)" stroke-width="0.445569" stroke-linecap="round" stroke-linejoin="round"/>
<path d="M30.8354 177.698C36.5209 178.507 37.1759 179.164 37.9846 184.85C38.7933 179.164 39.4505 178.507 45.136 177.698C39.4505 176.89 38.7933 176.235 37.9846 170.549C37.1759 176.235 36.5209 176.89 30.8354 177.698Z" fill="url(#paint16_linear_206_142)"/>
<path d="M56.321 133.602C57.4485 126.656 52.7318 120.111 45.786 118.984C38.8403 117.856 32.2956 122.573 31.1682 129.519C30.0407 136.465 34.7574 143.009 41.7031 144.137C48.6489 145.264 55.1936 140.548 56.321 133.602Z" stroke="url(#paint17_linear_206_142)" stroke-width="0.445569" stroke-linecap="round" stroke-linejoin="round"/>
<path d="M51.3717 129.86C51.4537 129.782 51.5124 129.684 51.5414 129.575C51.5704 129.466 51.5685 129.351 51.5359 129.243C51.5033 129.136 51.4412 129.039 51.3567 128.965C51.2722 128.89 51.1686 128.841 51.0576 128.822L46.7133 128.104C46.6171 128.088 46.5262 128.049 46.4485 127.99C46.3709 127.931 46.3088 127.854 46.2677 127.766L44.3963 123.78C44.3482 123.678 44.2726 123.591 44.178 123.53C44.0833 123.469 43.9735 123.435 43.8607 123.433C43.748 123.43 43.6369 123.46 43.5398 123.517C43.4427 123.574 43.3636 123.658 43.3114 123.758L41.2862 127.668C41.2413 127.755 41.1758 127.829 41.0954 127.885C41.0151 127.941 40.9223 127.976 40.8251 127.988L36.4563 128.536C36.3442 128.55 36.2382 128.595 36.1504 128.666C36.0626 128.737 35.9965 128.832 35.9596 128.938C35.9227 129.045 35.9165 129.16 35.9417 129.27C35.9669 129.38 36.0224 129.481 36.1021 129.561L39.1943 132.696C39.2632 132.765 39.314 132.85 39.3423 132.944C39.3707 133.038 39.3757 133.137 39.3569 133.233L38.5282 137.557C38.5065 137.668 38.5163 137.783 38.5566 137.888C38.5969 137.994 38.666 138.086 38.7561 138.154C38.8461 138.222 38.9535 138.264 39.066 138.274C39.1786 138.284 39.2917 138.263 39.3926 138.212L43.3292 136.24C43.4158 136.195 43.5121 136.171 43.6099 136.171C43.7077 136.171 43.804 136.195 43.8906 136.24L47.747 138.366C47.8458 138.421 47.958 138.447 48.071 138.442C48.184 138.436 48.2932 138.399 48.386 138.334C48.4789 138.27 48.5518 138.18 48.5964 138.077C48.641 137.973 48.6554 137.858 48.6381 137.746L47.9698 133.393C47.9555 133.296 47.9649 133.197 47.9971 133.104C48.0293 133.012 48.0833 132.928 48.1547 132.861L51.3717 129.86Z" fill="url(#paint18_linear_206_142)"/>
<path d="M170.225 158.185C171.085 158.195 171.937 158.014 172.718 157.655C173.499 157.296 174.191 156.767 174.742 156.107C175.294 155.447 175.691 154.673 175.906 153.84C176.121 153.007 176.148 152.137 175.985 151.293C175.821 150.448 175.472 149.651 174.962 148.958C174.452 148.266 173.795 147.696 173.037 147.289C172.279 146.882 171.44 146.649 170.581 146.607C169.722 146.565 168.865 146.715 168.071 147.045C167.913 147.109 167.787 147.232 167.721 147.388C167.654 147.544 167.652 147.72 167.715 147.877C167.779 148.035 167.902 148.161 168.058 148.227C168.214 148.294 168.39 148.296 168.548 148.233C169.493 147.854 170.539 147.808 171.514 148.101C172.489 148.393 173.336 149.009 173.916 149.845C174.496 150.682 174.775 151.691 174.708 152.707C174.64 153.723 174.23 154.686 173.544 155.439C172.858 156.191 171.937 156.689 170.932 156.85C169.926 157.011 168.896 156.826 168.009 156.326C167.122 155.825 166.432 155.039 166.05 154.095C165.668 153.151 165.618 152.105 165.908 151.129C165.935 151.048 165.945 150.962 165.939 150.876C165.932 150.79 165.908 150.707 165.868 150.631C165.829 150.555 165.774 150.487 165.708 150.433C165.642 150.378 165.565 150.337 165.483 150.313C165.401 150.288 165.314 150.281 165.229 150.291C165.144 150.3 165.061 150.327 164.986 150.369C164.912 150.412 164.846 150.469 164.794 150.537C164.742 150.605 164.704 150.683 164.682 150.766C164.429 151.628 164.38 152.538 164.539 153.423C164.697 154.308 165.06 155.143 165.598 155.864C166.136 156.584 166.834 157.17 167.637 157.574C168.44 157.978 169.326 158.189 170.225 158.191V158.185Z" fill="url(#paint19_linear_206_142)"/>
<path d="M47.0631 100.773C47.7497 100.773 48.4081 100.5 48.8936 100.015C49.3791 99.5294 49.6518 98.8709 49.6518 98.1843C49.6518 97.4978 49.3791 96.8393 48.8936 96.3538C48.4081 95.8683 47.7497 95.5956 47.0631 95.5956C46.7325 95.595 46.4049 95.6585 46.0984 95.7827C46.0284 95.8114 45.9725 95.8666 45.9429 95.9362C45.9133 96.0059 45.9123 96.0844 45.9403 96.1548C45.954 96.1898 45.9746 96.2218 46.0008 96.2488C46.027 96.2758 46.0584 96.2973 46.093 96.3121C46.1277 96.3268 46.1649 96.3345 46.2026 96.3346C46.2402 96.3348 46.2775 96.3274 46.3123 96.313C46.7336 96.1449 47.1994 96.1247 47.6337 96.2556C48.068 96.3865 48.4451 96.6607 48.7034 97.0336C48.9616 97.4064 49.0859 97.8558 49.0558 98.3084C49.0257 98.761 48.843 99.19 48.5376 99.5254C48.2322 99.8607 47.8221 100.083 47.3743 100.155C46.9265 100.227 46.4675 100.145 46.0722 99.9229C45.6768 99.7006 45.3686 99.3507 45.1977 98.9306C45.0269 98.5104 45.0036 98.0447 45.1315 97.6096C45.1482 97.5381 45.1369 97.4631 45.1 97.3997C45.0631 97.3363 45.0034 97.2895 44.9331 97.2687C44.8628 97.2479 44.7872 97.2548 44.7218 97.2879C44.6564 97.3211 44.6061 97.3779 44.5813 97.4469C44.5118 97.6866 44.4765 97.9348 44.4766 98.1843C44.4772 98.8704 44.7498 99.5281 45.2347 100.013C45.7195 100.499 46.3771 100.772 47.0631 100.773Z" fill="url(#paint20_linear_206_142)"/>
<path d="M179.281 7.60681H133.107C131.714 7.60681 130.379 8.16004 129.394 9.1448C128.409 10.1296 127.856 11.4652 127.856 12.8578V44.1457L121.727 58.5688C121.651 58.7645 121.645 58.9806 121.71 59.1802C121.775 59.3798 121.908 59.5507 122.085 59.6639C122.262 59.777 122.472 59.8254 122.681 59.8008C122.889 59.7762 123.083 59.6801 123.229 59.529L133.267 49.2118H179.281C179.971 49.2118 180.653 49.076 181.29 48.8121C181.927 48.5481 182.506 48.1613 182.994 47.6737C183.481 47.1861 183.868 46.6072 184.131 45.9701C184.395 45.333 184.53 44.6503 184.53 43.9608V12.8578C184.53 12.1684 184.395 11.4856 184.131 10.8485C183.868 10.2115 183.481 9.63257 182.994 9.14494C182.506 8.65731 181.927 8.27048 181.29 8.00657C180.653 7.74265 179.971 7.60681 179.281 7.60681Z" fill="#EEEEEE"/>
<path d="M179.493 49.2118H136.032C135.534 49.2121 135.041 49.1093 134.584 48.9098C134.127 48.7104 133.717 48.4186 133.378 48.0529C133.04 47.6872 132.78 47.2554 132.617 46.7846C132.453 46.3139 132.389 45.8144 132.427 45.3175C132.775 40.893 133.412 33.9221 134.161 31.0927C136.166 23.5314 143.93 19.5436 149.228 19.5436H163.12C168.416 19.5436 173.814 23.9458 176.029 29.7115C178.105 35.1452 179.493 49.2118 179.493 49.2118Z" fill="url(#paint21_linear_206_142)"/>
<path d="M161.675 19.5392C161.675 19.5392 159.086 27.5884 156.003 27.5884C152.438 27.5884 149.733 19.5392 149.733 19.5392H161.675Z" fill="#EEEEEE"/>
<path d="M149.528 9.48925C150.767 9.48925 151.772 8.10979 151.772 6.40814C151.772 4.70649 150.767 3.32703 149.528 3.32703C148.289 3.32703 147.285 4.70649 147.285 6.40814C147.285 8.10979 148.289 9.48925 149.528 9.48925Z" fill="#111111"/>
<path d="M160.487 9.27762C160.3 13.1853 155.098 16.224 152.104 16.0815C149.11 15.9389 148.606 12.704 148.793 8.79641C148.98 4.88877 150.266 3.3716 153.291 2.93495C156.257 2.5072 160.67 5.36775 160.487 9.27762Z" fill="#FF6F61"/>
<path d="M152.295 13.8536L151.774 20.4859C151.701 21.3281 153.804 23.0168 155.844 23.0168C159.509 23.0168 159.975 20.76 159.912 19.9713L159.11 12.5637L152.295 13.8536Z" fill="#FF6F61"/>
<path d="M150.878 9.49822C150.878 9.75888 150.736 9.97498 150.549 9.97721C150.362 9.97943 150.199 9.77893 150.199 9.50936C150.199 9.23979 150.342 9.0326 150.529 9.02815C150.716 9.02369 150.867 9.23534 150.878 9.49822Z" fill="#111111"/>
<path d="M154.089 9.44256C154.089 9.70321 153.946 9.91931 153.759 9.92154C153.572 9.92377 153.418 9.71658 153.414 9.4537C153.409 9.19081 153.556 8.97694 153.744 8.97248C153.931 8.96803 154.084 9.17967 154.089 9.44256Z" fill="#111111"/>
<path d="M152.99 12.958C151.306 13.368 150.658 12.7954 150.658 12.7954C150.658 12.7954 150.533 13.8937 151.676 14.0007C152.819 14.1076 152.99 12.958 152.99 12.958Z" fill="white"/>
<path d="M151.823 9.48938C151.574 10.082 150.965 11.1669 151.326 11.5568C151.687 11.9467 152.427 11.7462 152.427 11.7462" stroke="#111111" stroke-width="0.445569" stroke-miterlimit="10" stroke-linecap="round"/>
<path d="M149.869 8.57593C149.869 8.57593 150.564 8.09472 151.137 8.57593" stroke="#111111" stroke-width="0.445569" stroke-miterlimit="10" stroke-linecap="round"/>
<path d="M152.941 8.55135C152.941 8.55135 154.12 8.00553 154.501 8.58254" stroke="#111111" stroke-width="0.445569" stroke-miterlimit="10" stroke-linecap="round"/>
<path d="M152.104 16.0815C152.104 16.0815 154.492 16.585 156.782 14.4998" stroke="#111111" stroke-width="0.445569" stroke-miterlimit="10" stroke-linecap="round"/>
<path d="M152.069 3.77698C152.318 2.56327 151.536 1.37739 150.322 1.12825C149.109 0.879115 147.923 1.66106 147.674 2.87477C147.424 4.08848 148.206 5.27435 149.42 5.52349C150.634 5.77263 151.82 4.99069 152.069 3.77698Z" fill="#111111"/>
<path d="M157.321 4.8215C158.148 3.89827 158.069 2.47998 157.146 1.65365C156.223 0.827317 154.804 0.905868 153.978 1.82909C153.152 2.75232 153.23 4.1706 154.154 4.99693C155.077 5.82326 156.495 5.74472 157.321 4.8215Z" fill="#111111"/>
<path d="M158.542 6.65101C159.886 6.65101 160.975 5.56181 160.975 4.21821C160.975 2.87461 159.886 1.7854 158.542 1.7854C157.199 1.7854 156.109 2.87461 156.109 4.21821C156.109 5.56181 157.199 6.65101 158.542 6.65101Z" fill="#111111"/>
<path d="M152.427 5.80893C153.914 5.80893 155.12 4.60302 155.12 3.11546C155.12 1.6279 153.914 0.421997 152.427 0.421997C150.939 0.421997 149.733 1.6279 149.733 3.11546C149.733 4.60302 150.939 5.80893 152.427 5.80893Z" fill="#111111"/>
<path d="M156.363 5.13164C156.675 6.51654 157.19 7.84765 157.892 9.08161C158.85 10.7035 157.515 14.0341 158.674 14.0074C159.832 13.9806 160.278 12.7954 160.616 11.0354C160.955 9.27544 160.971 4.30957 160.971 4.30957L156.363 5.13164Z" fill="#111111"/>
<path d="M160.36 6.45941C160.36 8.16148 159.781 9.28431 158.542 9.28431C157.304 9.28431 156.363 7.27925 156.363 5.56827C156.363 3.85728 156.878 3.3783 158.117 3.3783C159.355 3.3783 160.36 4.75733 160.36 6.45941Z" fill="#111111"/>
<path d="M159.701 9.6252C159.679 9.92531 159.569 10.2123 159.385 10.4506C159.201 10.6888 158.952 10.8678 158.667 10.9653C158.382 11.0627 158.075 11.0743 157.784 10.9987C157.493 10.923 157.23 10.7635 157.029 10.5398C156.827 10.3161 156.696 10.0382 156.652 9.7406C156.607 9.44301 156.651 9.13888 156.778 8.866C156.905 8.59313 157.109 8.36355 157.365 8.20582C157.621 8.04808 157.918 7.96914 158.219 7.97882C158.425 7.98878 158.626 8.03938 158.812 8.12769C158.998 8.21599 159.165 8.34027 159.303 8.49333C159.441 8.64639 159.547 8.82522 159.615 9.01949C159.683 9.21376 159.712 9.41962 159.701 9.6252Z" fill="#FF6F61"/>
<path d="M157.411 9.04155C157.411 9.04155 158.816 8.44671 159.086 9.47152" stroke="#111111" stroke-width="0.445569" stroke-miterlimit="10" stroke-linecap="round"/>
<path d="M157.892 9.66314L158.344 8.93018" stroke="#111111" stroke-width="0.445569" stroke-miterlimit="10" stroke-linecap="round"/>
<path d="M121.571 25.3182C120.834 25.4095 118.949 24.4448 118.697 24.2733C117.748 23.6272 115.868 22.6982 115.015 22.7294C114.667 22.7428 114.039 23.3755 114.177 23.5537C114.315 23.7319 117.895 25.414 117.895 25.5966C117.895 25.7793 118.341 29.4775 118.9 30.2751C118.994 30.2996 121.291 31.721 121.754 31.8146C122.217 31.9081 123.536 33.227 123.536 33.227L126.931 29.7961L124.334 26.8487C124.334 26.8487 122.558 25.1979 121.571 25.3182Z" fill="#FF6F61"/>
<path d="M122.747 27.6708L122.072 28.3793L107.378 14.0498L107.547 13.8738L122.747 27.6708Z" fill="#111111"/>
<path d="M119.301 24.4226L121.275 24.6744L123.198 25.4274C123.198 25.4274 124.583 26.6505 124.34 27.1829C124.098 27.7154 123.572 28.3169 123.249 28.1765C122.846 28.0005 121.195 26.7351 121.008 26.0935C120.388 25.9264 119.78 25.9732 119.448 25.4786C119.352 25.3224 119.289 25.1479 119.264 24.9661C119.238 24.7843 119.251 24.5992 119.301 24.4226Z" fill="#FF6F61"/>
<path d="M119.678 27.2163L117.708 27.7666C117.507 27.8228 117.291 27.797 117.109 27.6947C116.926 27.5924 116.792 27.422 116.735 27.2207C116.679 27.019 116.705 26.8034 116.808 26.6211C116.911 26.4387 117.081 26.3043 117.283 26.2472L119.252 25.6947C119.352 25.6665 119.456 25.6584 119.559 25.6708C119.663 25.6831 119.762 25.7157 119.853 25.7666C119.943 25.8175 120.023 25.8858 120.087 25.9675C120.151 26.0492 120.198 26.1427 120.226 26.2427C120.254 26.3426 120.262 26.4471 120.249 26.5502C120.237 26.6532 120.205 26.7528 120.154 26.8433C120.103 26.9337 120.034 27.0132 119.953 27.0772C119.871 27.1412 119.778 27.1885 119.678 27.2163Z" fill="#FF6F61"/>
<path d="M119.998 28.7602L118.029 29.3105C117.929 29.3386 117.825 29.3468 117.722 29.3346C117.619 29.3224 117.519 29.2901 117.429 29.2394C117.338 29.1887 117.259 29.1207 117.195 29.0392C117.131 28.9577 117.083 28.8644 117.055 28.7646C117.027 28.6647 117.019 28.5602 117.031 28.4572C117.044 28.3541 117.076 28.2545 117.127 28.1641C117.178 28.0736 117.246 27.9941 117.328 27.9301C117.41 27.8661 117.503 27.8188 117.603 27.7911L119.573 27.2386C119.774 27.183 119.99 27.2094 120.172 27.3121C120.355 27.4147 120.489 27.5853 120.546 27.7866C120.602 27.9884 120.575 28.2039 120.473 28.3863C120.37 28.5686 120.2 28.703 119.998 28.7602Z" fill="#FF6F61"/>
<path d="M120.696 29.8986L118.726 30.4489C118.626 30.477 118.522 30.4853 118.419 30.4731C118.316 30.4609 118.217 30.4285 118.126 30.3778C118.036 30.3271 117.956 30.2591 117.892 30.1776C117.828 30.0962 117.781 30.0029 117.753 29.9031C117.725 29.8031 117.716 29.6987 117.729 29.5956C117.741 29.4926 117.774 29.3929 117.825 29.3025C117.875 29.212 117.944 29.1325 118.025 29.0685C118.107 29.0045 118.201 28.9573 118.301 28.9295L120.27 28.377C120.472 28.3214 120.687 28.3478 120.87 28.4505C121.052 28.5532 121.187 28.7237 121.244 28.925C121.299 29.1268 121.273 29.3423 121.17 29.5247C121.068 29.7071 120.897 29.8415 120.696 29.8986Z" fill="#FF6F61"/>
<path d="M118.049 26.0845L119.31 25.7303C119.503 25.6701 119.713 25.6887 119.893 25.7822C120.073 25.8756 120.208 26.0363 120.27 26.2293C120.316 26.4463 120.278 26.6726 120.163 26.8622C120.048 27.0518 119.865 27.1904 119.651 27.2497" stroke="#111111" stroke-width="0.445569" stroke-miterlimit="10" stroke-linecap="round"/>
<path d="M118.102 27.7042L120.072 27.1539C120.256 27.09 120.458 27.1012 120.635 27.1849C120.811 27.2687 120.947 27.4184 121.014 27.6017C121.036 27.6978 121.038 27.7973 121.021 27.8943C121.004 27.9914 120.967 28.084 120.914 28.1669C120.861 28.2498 120.792 28.3213 120.711 28.3773C120.63 28.4332 120.538 28.4725 120.442 28.4928" stroke="#111111" stroke-width="0.445569" stroke-miterlimit="10" stroke-linecap="round"/>
<path d="M118.671 29.0387L120.642 28.4862C120.828 28.422 121.032 28.434 121.21 28.5195C121.387 28.6051 121.523 28.7573 121.589 28.9429C121.691 29.3127 121.366 29.8073 120.952 29.9254" stroke="#111111" stroke-width="0.445569" stroke-miterlimit="10" stroke-linecap="round"/>
<path d="M140.717 47.0107C139.403 47.9709 135.892 47.8529 133.508 48.1804C133.508 48.1804 123.69 39.6455 120.226 34.713C124.88 32.679 126.637 27.6418 126.637 27.6418L142.64 39.895C143.798 40.9889 142.009 46.0661 140.717 47.0107Z" fill="url(#paint22_linear_206_142)"/>
<path d="M132.915 32.4451L138.206 36.4953" stroke="#111111" stroke-width="0.445569" stroke-miterlimit="10" stroke-linecap="round"/>
<path d="M143.012 36.2146L141.655 49.0537" stroke="#111111" stroke-width="0.445569" stroke-miterlimit="10" stroke-linecap="round"/>
<path d="M168.425 36.2146L170.225 48.7952" stroke="#111111" stroke-width="0.445569" stroke-miterlimit="10" stroke-linecap="round"/>
<path d="M148.76 21.7581C148.76 21.7581 151.244 27.0002 153.407 28.328C155.57 29.6558 158.667 28.328 158.667 28.328" stroke="#111111" stroke-width="0.445569" stroke-miterlimit="10" stroke-linecap="round"/>
</g>
<defs>
<linearGradient id="paint0_linear_206_142" x1="95.6168" y1="206.255" x2="95.6168" y2="208.612" gradientUnits="userSpaceOnUse">
<stop stop-color="#0AD491"/>
<stop offset="1" stop-color="#003366"/>
</linearGradient>
<linearGradient id="paint1_linear_206_142" x1="114.858" y1="71.3436" x2="114.858" y2="96.9941" gradientUnits="userSpaceOnUse">
<stop stop-color="#0AD491"/>
<stop offset="1" stop-color="#003366"/>
</linearGradient>
<linearGradient id="paint2_linear_206_142" x1="109.459" y1="98.1876" x2="112.291" y2="220.182" gradientUnits="userSpaceOnUse">
<stop stop-color="#0AD491"/>
<stop offset="1" stop-color="#003366"/>
</linearGradient>
<linearGradient id="paint3_linear_206_142" x1="108.339" y1="75.7819" x2="108.339" y2="92.3635" gradientUnits="userSpaceOnUse">
<stop stop-color="#0AD491"/>
<stop offset="1" stop-color="#003366"/>
</linearGradient>
<linearGradient id="paint4_linear_206_142" x1="108.689" y1="140.313" x2="108.689" y2="151.247" gradientUnits="userSpaceOnUse">
<stop stop-color="#0AD491"/>
<stop offset="1" stop-color="#003366"/>
</linearGradient>
<linearGradient id="paint5_linear_206_142" x1="124.573" y1="131.676" x2="124.573" y2="162.03" gradientUnits="userSpaceOnUse">
<stop stop-color="#0AD491"/>
<stop offset="1" stop-color="#003366"/>
</linearGradient>
<linearGradient id="paint6_linear_206_142" x1="119.24" y1="150.717" x2="119.24" y2="162.456" gradientUnits="userSpaceOnUse">
<stop stop-color="#0AD491"/>
<stop offset="1" stop-color="#003366"/>
</linearGradient>
<linearGradient id="paint7_linear_206_142" x1="90.4931" y1="134.481" x2="90.4931" y2="161.417" gradientUnits="userSpaceOnUse">
<stop stop-color="#0AD491"/>
<stop offset="1" stop-color="#003366"/>
</linearGradient>
<linearGradient id="paint8_linear_206_142" x1="136.021" y1="181.586" x2="136.021" y2="205.747" gradientUnits="userSpaceOnUse">
<stop stop-color="#0AD491"/>
<stop offset="1" stop-color="#003366"/>
</linearGradient>
<linearGradient id="paint9_linear_206_142" x1="48.942" y1="66.4462" x2="54.9005" y2="67.8525" gradientUnits="userSpaceOnUse">
<stop stop-color="#0AD491"/>
<stop offset="1" stop-color="#003366"/>
</linearGradient>
<linearGradient id="paint10_linear_206_142" x1="58.7453" y1="66.6644" x2="64.7884" y2="67.6453" gradientUnits="userSpaceOnUse">
<stop stop-color="#0AD491"/>
<stop offset="1" stop-color="#003366"/>
</linearGradient>
<linearGradient id="paint11_linear_206_142" x1="69.4385" y1="64.9877" x2="73.7675" y2="69.3167" gradientUnits="userSpaceOnUse">
<stop stop-color="#0AD491"/>
<stop offset="1" stop-color="#003366"/>
</linearGradient>
<linearGradient id="paint12_linear_206_142" x1="175.281" y1="65.4052" x2="183.707" y2="85.749" gradientUnits="userSpaceOnUse">
<stop stop-color="#0AD491"/>
<stop offset="1" stop-color="#003366"/>
</linearGradient>
<linearGradient id="paint13_linear_206_142" x1="178.166" y1="71.3878" x2="178.166" y2="75.5762" gradientUnits="userSpaceOnUse">
<stop stop-color="#0AD491"/>
<stop offset="1" stop-color="#003366"/>
</linearGradient>
<linearGradient id="paint14_linear_206_142" x1="100.201" y1="42.646" x2="100.201" y2="55.7713" gradientUnits="userSpaceOnUse">
<stop stop-color="#0AD491"/>
<stop offset="1" stop-color="#003366"/>
</linearGradient>
<linearGradient id="paint15_linear_206_142" x1="100.026" y1="39.015" x2="100.026" y2="59.3998" gradientUnits="userSpaceOnUse">
<stop stop-color="#0AD491"/>
<stop offset="1" stop-color="#003366"/>
</linearGradient>
<linearGradient id="paint16_linear_206_142" x1="37.9857" y1="170.549" x2="37.9857" y2="184.85" gradientUnits="userSpaceOnUse">
<stop stop-color="#0AD491"/>
<stop offset="1" stop-color="#003366"/>
</linearGradient>
<linearGradient id="paint17_linear_206_142" x1="31.1682" y1="129.519" x2="56.321" y2="133.602" gradientUnits="userSpaceOnUse">
<stop stop-color="#0AD491"/>
<stop offset="1" stop-color="#003366"/>
</linearGradient>
<linearGradient id="paint18_linear_206_142" x1="43.7442" y1="123.433" x2="43.7442" y2="138.442" gradientUnits="userSpaceOnUse">
<stop stop-color="#0AD491"/>
<stop offset="1" stop-color="#003366"/>
</linearGradient>
<linearGradient id="paint19_linear_206_142" x1="170.269" y1="146.6" x2="170.269" y2="158.191" gradientUnits="userSpaceOnUse">
<stop stop-color="#0AD491"/>
<stop offset="1" stop-color="#003366"/>
</linearGradient>
<linearGradient id="paint20_linear_206_142" x1="47.0642" y1="95.5956" x2="47.0642" y2="100.773" gradientUnits="userSpaceOnUse">
<stop stop-color="#0AD491"/>
<stop offset="1" stop-color="#003366"/>
</linearGradient>
<linearGradient id="paint21_linear_206_142" x1="155.955" y1="19.5436" x2="155.955" y2="96.9375" gradientUnits="userSpaceOnUse">
<stop stop-color="#0AD491"/>
<stop offset="1" stop-color="#003366"/>
</linearGradient>
<linearGradient id="paint22_linear_206_142" x1="131.62" y1="27.6418" x2="131.62" y2="76.0916" gradientUnits="userSpaceOnUse">
<stop stop-color="#0AD491"/>
<stop offset="1" stop-color="#003366"/>
</linearGradient>
<clipPath id="clip0_206_142">
<rect width="198.37" height="208.19" fill="white" transform="translate(0.93335 0.421997)"/>
</clipPath>
</defs>
</svg>
