<svg width="206" height="188" viewBox="0 0 206 188" fill="none" xmlns="http://www.w3.org/2000/svg">
<g clipPath="url(#clip0_206_78)">
<path d="M17.3518 186.569C17.3518 186.569 -31.5159 55.2013 36.6454 66.1463C80.1148 73.1271 81.5009 10.2613 121.068 4.90184C151.907 0.727538 189.713 11.04 199.284 31.2356C221.11 77.3471 177.478 186.569 177.478 186.569H17.3518Z" fill="#FDFFF9"/>
<path d="M80.0167 121.049L73.9905 106.812V90.4226C73.9905 88.9085 73.389 87.4564 72.3184 86.3858C71.2478 85.3152 69.7957 84.7137 68.2816 84.7137H33.8504C32.3364 84.7137 30.8843 85.3152 29.8137 86.3858C28.7431 87.4564 28.1416 88.9085 28.1416 90.4226V108.846C28.1416 110.36 28.7431 111.812 29.8137 112.883C30.8843 113.954 32.3364 114.555 33.8504 114.555H67.0668L78.2926 122.438C78.4978 122.577 78.7421 122.646 78.9896 122.636C79.2371 122.626 79.4748 122.536 79.6678 122.381C79.8607 122.225 79.9987 122.012 80.0616 121.773C80.1244 121.533 80.1086 121.279 80.0167 121.049Z" fill="white"/>
<path d="M43.44 100.187C43.744 98.3225 42.4789 96.5645 40.6143 96.2605C38.7497 95.9565 36.9917 97.2216 36.6877 99.0862C36.3837 100.951 37.6488 102.709 39.5134 103.013C41.378 103.317 43.136 102.052 43.44 100.187Z" fill="url(#paint0_linear_206_78)"/>
<path d="M54.4395 100.189C54.7435 98.3242 53.4784 96.5662 51.6138 96.2622C49.7492 95.9582 47.9912 97.2233 47.6872 99.088C47.3832 100.953 48.6483 102.711 50.5129 103.015C52.3775 103.319 54.1355 102.053 54.4395 100.189Z" fill="url(#paint1_linear_206_78)"/>
<path d="M65.3919 100.431C65.8287 98.5928 64.6929 96.7487 62.8549 96.3118C61.0168 95.875 59.1727 97.0108 58.7358 98.8489C58.299 100.687 59.4348 102.531 61.2728 102.968C63.1109 103.405 64.955 102.269 65.3919 100.431Z" fill="url(#paint2_linear_206_78)"/>
<path d="M72.3509 142.939C72.3509 142.939 70.4579 138.866 69.9715 138.295C69.4851 137.724 64.7833 134.267 64.1462 134.285C63.5091 134.303 63.2122 135.399 63.5456 135.991C63.879 136.582 66.9184 139.099 65.7172 139.489C64.5161 139.88 61.2118 139.009 60.762 138.818C59.0562 138.094 55.3934 137.313 53.9959 137.676C53.4272 137.824 52.9683 138.283 53.2354 138.528C53.5026 138.772 59.5243 140.606 59.5654 140.889C59.6065 141.172 59.7686 141.021 59.4398 141.19C58.1245 141.083 55.0805 139.9 52.7536 139.916C52.3289 140.464 52.2581 140.864 53.8406 141.875C54.2973 141.944 58.3894 143.245 58.8073 143.319C58.8849 143.335 58.9625 143.481 58.9625 143.625L52.6508 142.88C52.6508 142.88 51.8904 144.753 53.5643 144.954C55.1216 145.139 61.9152 147.237 61.9448 147.253H61.9608C64.1393 147.92 70.6999 151.838 70.6999 151.838L74.8103 145.915C74.0407 145.202 72.3509 142.939 72.3509 142.939Z" fill="#FF6F61"/>
<path d="M96.4697 143.065C90.4891 149.144 82.0286 168.613 82.0286 168.613L90.6466 176.295C93.4919 178.547 97.5612 178.396 99.0204 174.468L109.952 144.974C109.952 144.974 98.8628 140.633 96.4697 143.065Z" fill="url(#paint3_linear_206_78)"/>
<path d="M85.7526 172.498L63.6411 153.791C63.6411 153.791 72.1404 148.31 75.4858 142.732C81.0668 149.075 98.3577 162.827 98.3577 162.827L85.7526 172.498Z" fill="url(#paint4_linear_206_78)"/>
<path d="M151.989 181.449L144.874 186.203L92.4504 186.432C92.4504 186.432 92.0918 157.52 92.4504 151.991C93.0007 143.49 102.238 136.587 110.719 135.858L123.844 134.737L136.97 135.858C141.065 136.209 144.879 138.084 147.658 141.111C150.437 144.139 151.979 148.099 151.98 152.208L151.989 181.449Z" fill="url(#paint5_linear_206_78)"/>
<path d="M110.959 118.012C113.004 118.012 114.663 115.733 114.663 112.922C114.663 110.111 113.004 107.832 110.959 107.832C108.913 107.832 107.255 110.111 107.255 112.922C107.255 115.733 108.913 118.012 110.959 118.012Z" fill="#111111"/>
<path d="M129.06 117.661C128.75 124.119 120.155 129.138 115.213 128.9C110.271 128.663 109.433 123.324 109.744 116.866C110.054 110.408 112.174 107.908 117.172 107.186C122.07 106.481 129.371 111.205 129.06 117.661Z" fill="#FF6F61"/>
<path d="M115.528 125.221L114.665 136.182C114.546 137.571 118.019 140.359 121.39 140.359C127.444 140.359 128.213 136.635 128.11 135.335L126.777 123.098L115.528 125.221Z" fill="#FF6F61"/>
<path d="M113.194 118.026C113.194 118.458 112.966 118.814 112.651 118.819C112.336 118.823 112.087 118.478 112.078 118.044C112.069 117.611 112.306 117.257 112.623 117.252C112.941 117.247 113.181 117.592 113.194 118.026Z" fill="#111111"/>
<path d="M118.492 117.935C118.492 118.366 118.264 118.723 117.946 118.727C117.629 118.732 117.382 118.387 117.375 117.953C117.369 117.519 117.604 117.165 117.919 117.161C118.234 117.156 118.485 117.501 118.492 117.935Z" fill="#111111"/>
<path d="M116.677 123.739C113.893 124.425 112.822 123.472 112.822 123.472C112.822 123.472 112.616 125.285 114.507 125.464C116.398 125.642 116.677 123.739 116.677 123.739Z" fill="white"/>
<path d="M114.747 118.012C114.336 118.99 113.331 120.782 113.927 121.438C114.523 122.093 115.754 121.75 115.754 121.75" stroke="#111111" stroke-width="0.456708" stroke-miterlimit="10" stroke-linecap="round"/>
<path d="M111.521 116.503C111.521 116.503 112.662 115.708 113.617 116.489" stroke="#111111" stroke-width="0.456708" stroke-miterlimit="10" stroke-linecap="round"/>
<path d="M116.597 116.464C116.597 116.464 118.54 115.551 119.157 116.514" stroke="#111111" stroke-width="0.456708" stroke-miterlimit="10" stroke-linecap="round"/>
<path d="M115.213 128.9C115.213 128.9 119.157 129.731 122.934 126.288" stroke="#111111" stroke-width="0.456708" stroke-miterlimit="10" stroke-linecap="round"/>
<path d="M114.139 110.45C115.586 109.004 115.586 106.658 114.139 105.212C112.693 103.766 110.348 103.766 108.901 105.212C107.455 106.658 107.455 109.004 108.901 110.45C110.348 111.897 112.693 111.897 114.139 110.45Z" fill="#111111"/>
<path d="M122.503 111.239C124.39 110.448 125.278 108.277 124.487 106.391C123.697 104.504 121.526 103.616 119.64 104.407C117.753 105.197 116.865 107.368 117.655 109.254C118.446 111.141 120.617 112.029 122.503 111.239Z" fill="#111111"/>
<path d="M129.672 110.513C130.341 108.398 129.169 106.141 127.054 105.472C124.939 104.803 122.682 105.975 122.013 108.09C121.344 110.206 122.516 112.462 124.631 113.131C126.746 113.8 129.003 112.628 129.672 110.513Z" fill="#111111"/>
<path d="M115.745 111.931C118.202 111.931 120.193 109.94 120.193 107.483C120.193 105.026 118.202 103.035 115.745 103.035C113.288 103.035 111.297 105.026 111.297 107.483C111.297 109.94 113.288 111.931 115.745 111.931Z" fill="#111111"/>
<path d="M122.246 110.815C122.763 113.102 123.615 115.3 124.774 117.339C126.352 120.02 124.151 125.518 126.064 125.475C127.978 125.432 128.713 123.472 129.261 120.565C129.809 117.658 129.864 109.456 129.864 109.456L122.246 110.815Z" fill="#111111"/>
<path d="M128.85 113.009C128.85 115.82 127.891 117.674 125.845 117.674C123.799 117.674 122.246 114.347 122.246 111.536C122.246 108.725 123.1 107.917 125.146 107.917C127.192 107.917 128.85 110.198 128.85 113.009Z" fill="#111111"/>
<path d="M127.761 118.236C127.725 118.733 127.543 119.208 127.239 119.602C126.934 119.996 126.521 120.292 126.049 120.453C125.578 120.614 125.07 120.632 124.588 120.506C124.106 120.38 123.672 120.115 123.34 119.744C123.008 119.373 122.793 118.912 122.72 118.419C122.648 117.926 122.723 117.423 122.934 116.973C123.146 116.522 123.486 116.144 123.911 115.885C124.337 115.626 124.829 115.498 125.327 115.516C125.665 115.535 125.997 115.62 126.302 115.767C126.608 115.914 126.881 116.119 127.107 116.372C127.333 116.625 127.507 116.919 127.62 117.239C127.732 117.559 127.78 117.898 127.761 118.236Z" fill="#FF6F61"/>
<path d="M123.979 117.272C123.979 117.272 126.297 116.291 126.745 117.983" stroke="#111111" stroke-width="0.456708" stroke-miterlimit="10" stroke-linecap="round"/>
<path d="M124.774 118.298L125.518 117.09" stroke="#111111" stroke-width="0.456708" stroke-miterlimit="10" stroke-linecap="round"/>
<path d="M137.324 153.957L139.548 183.082L147.239 186.279C156.773 188.22 160.013 179.517 159.011 175.245L150.724 145.874L137.324 153.957Z" fill="#09BB8B"/>
<path d="M101.069 169.746L98.3625 180.072" stroke="#111111" stroke-width="0.456708" stroke-miterlimit="10" stroke-linecap="round"/>
<path d="M136.74 154.389L139.174 167.494" stroke="#111111" stroke-width="0.456708" stroke-miterlimit="10" stroke-linecap="round"/>
<path d="M103.17 167.898C103.677 167.213 108.965 168.378 109.563 168.163C110.162 167.949 109.959 167.661 109.673 167.592C107.382 167.08 105.16 166.3 103.051 165.268C102.489 164.976 102.715 163.93 103.279 164.021C105.649 164.416 109.607 165.948 109.879 165.905C110.15 165.862 110.107 165.448 109.997 165.396C107.604 164.327 103.96 163.267 103.204 162.135C102.996 161.824 103.909 161.358 104.117 161.386C106.307 161.685 109.484 163.185 110.801 163.615C111.135 163.53 111.338 163.5 111.361 163.235C111.383 162.971 106.273 159.634 106.086 159.353C105.898 159.073 106.41 158.76 106.953 158.746C108.294 158.714 111.434 160.203 112.82 161.219C113.187 161.491 115.985 162.984 117.159 162.888C118.332 162.792 116.122 159.87 115.946 159.262C115.77 158.655 116.282 157.734 116.859 157.851C117.437 157.967 120.945 162.098 121.262 162.719C121.579 163.341 122.418 167.421 122.418 167.421L124.859 169.874L119.606 174.594C119.606 174.594 117.179 173.05 116.46 172.897C115.74 172.744 110.632 170.65 110.322 170.467C110.011 170.285 104.889 169.273 104.373 169.118C103.857 168.963 102.663 168.586 103.17 167.898Z" fill="#FF6F61"/>
<path d="M143.234 184.619L115.021 174.171C115.021 174.171 121.954 168.616 121.819 161.879C129.647 165.06 150.914 169.906 150.914 169.906L143.234 184.619Z" fill="url(#paint6_linear_206_78)"/>
<path d="M143.234 168.835L122.495 162.078C122.495 162.078 121.088 171.109 115.325 174.283C118.483 176.526 134.477 181.376 134.477 181.376" stroke="#111111" stroke-width="0.456708" stroke-linecap="round" stroke-linejoin="round"/>
<path d="M99.6185 185.018H60.7984L53.1371 159.769C53.048 159.475 53.0289 159.164 53.0815 158.861C53.1342 158.559 53.2569 158.272 53.4401 158.025C53.6232 157.779 53.8615 157.578 54.1361 157.44C54.4106 157.302 54.7137 157.23 55.021 157.23H89.7308C90.1531 157.23 90.5641 157.366 90.9033 157.618C91.2425 157.869 91.4919 158.223 91.6147 158.627L99.6185 185.018Z" fill="#003366"/>
<path d="M61.6982 180.906H111.105C111.81 180.906 112.487 181.186 112.986 181.685C113.485 182.184 113.765 182.86 113.765 183.566V185.016H61.7005V180.906H61.6982Z" fill="#003366"/>
<path d="M132.376 31.295C138.414 32.1536 139.11 32.8501 139.969 38.8878C140.83 32.8501 141.524 32.1536 147.564 31.295C141.524 30.4364 140.83 29.7399 139.969 23.7023C139.11 29.7399 138.414 30.4364 132.376 31.295Z" fill="url(#paint7_linear_206_78)"/>
<path d="M189.368 101.05C189.368 98.1952 188.62 95.3899 187.199 92.9139C185.777 90.438 183.731 88.3778 181.266 86.9386C178.8 85.4994 176 84.7315 173.145 84.7113C170.29 84.6912 167.479 85.4196 164.994 86.8238C162.508 88.2281 160.433 90.2592 158.977 92.7149C157.52 95.1706 156.733 97.965 156.693 100.82C156.652 103.675 157.361 106.49 158.748 108.986C160.135 111.481 162.151 113.57 164.597 115.044V121.438C164.597 122.682 165.091 123.876 165.971 124.756C166.851 125.636 168.045 126.13 169.289 126.13H176.77C177.388 126.132 178 126.011 178.571 125.775C179.142 125.539 179.661 125.192 180.098 124.755C180.535 124.318 180.881 123.799 181.117 123.228C181.353 122.656 181.473 122.044 181.472 121.426V115.032C183.881 113.58 185.874 111.529 187.258 109.079C188.641 106.629 189.368 103.864 189.368 101.05Z" stroke="url(#paint8_linear_206_78)" stroke-width="0.456708" stroke-linecap="round" stroke-linejoin="round"/>
<path d="M177.067 114.84H164.597" stroke="url(#paint9_linear_206_78)" stroke-width="0.456708" stroke-linecap="round" stroke-linejoin="round"/>
<path d="M174.583 114.841C174.583 114.841 174.156 94.3184 174.886 94.202C179.645 93.4507 183.299 98.1137 180.44 101.082C177.983 103.617 174.544 103.822 172.429 103.822C170.374 103.822 167.143 103.626 164.688 101.082C161.834 98.1137 165.487 93.4507 170.239 94.202C170.97 94.3184 170.543 114.841 170.543 114.841" stroke="url(#paint10_linear_206_78)" stroke-width="0.456708" stroke-linecap="round" stroke-linejoin="round"/>
<path d="M181.798 114.84C181.693 114.907 181.57 114.98 181.467 115.046V121.426C181.467 122.043 181.346 122.653 181.111 123.222C180.875 123.792 180.529 124.309 180.093 124.745C179.658 125.181 179.14 125.527 178.571 125.762C178.001 125.998 177.391 126.119 176.774 126.119H169.289C168.673 126.119 168.062 125.998 167.493 125.762C166.923 125.527 166.406 125.181 165.97 124.745C165.534 124.309 165.189 123.792 164.953 123.222C164.717 122.653 164.596 122.043 164.596 121.426V115.046C164.482 114.98 164.368 114.907 164.263 114.84H181.798Z" fill="url(#paint11_linear_206_78)"/>
<path d="M181.447 118.154H168.977" stroke="#FAF7EF" stroke-width="0.456708" stroke-linecap="round" stroke-linejoin="round"/>
<path d="M177.067 122.146H164.597" stroke="#FAF7EF" stroke-width="0.456708" stroke-linecap="round" stroke-linejoin="round"/>
<path d="M106.492 40.1208H95.1633V74.1821H106.492V40.1208Z" fill="#FFB347"/>
<path d="M125.662 53.2717H114.334V74.1821H125.662V53.2717Z" fill="url(#paint12_linear_206_78)"/>
<path d="M144.83 60.8873H133.502V74.1844H144.83V60.8873Z" fill="#EEEEEE"/>
<path d="M87.6094 74.4082H152.775" stroke="url(#paint13_linear_206_78)" stroke-width="0.456708" stroke-linecap="round" stroke-linejoin="round"/>
<path d="M58.3728 45.0336C68.4837 34.9226 68.4837 18.5295 58.3728 8.41855C48.2618 -1.69242 31.8687 -1.69241 21.7577 8.41855C11.6467 18.5295 11.6468 34.9226 21.7577 45.0336C31.8687 55.1446 48.2618 55.1446 58.3728 45.0336Z" stroke="url(#paint14_linear_206_78)" stroke-width="0.456708" stroke-linecap="round" stroke-linejoin="round"/>
<path d="M40.0662 44.2061C49.7204 44.2061 57.5467 36.3798 57.5467 26.7256C57.5467 17.0714 49.7204 9.24512 40.0662 9.24512C30.412 9.24512 22.5857 17.0714 22.5857 26.7256C22.5857 36.3798 30.412 44.2061 40.0662 44.2061Z" fill="url(#paint15_linear_206_78)"/>
<path d="M22.5835 26.7257H57.5467" stroke="white" stroke-width="0.456708" stroke-linecap="round" stroke-linejoin="round"/>
<path d="M26.1343 16.21C35.2328 18.8516 44.8949 18.8516 53.9934 16.21" stroke="white" stroke-width="0.456708" stroke-linecap="round" stroke-linejoin="round"/>
<path d="M26.1343 37.2436C35.2325 34.5998 44.8952 34.5998 53.9934 37.2436" stroke="white" stroke-width="0.456708" stroke-linecap="round" stroke-linejoin="round"/>
<path d="M40.0664 44.2061V9.24512" stroke="white" stroke-width="0.456708" stroke-linecap="round" stroke-linejoin="round"/>
<path d="M40.0663 9.24512C40.0663 9.24512 31.4939 13.7711 31.4939 26.7256C31.4939 40.5364 40.0663 44.2061 40.0663 44.2061" stroke="white" stroke-width="0.456708" stroke-linecap="round" stroke-linejoin="round"/>
<path d="M40.0664 9.24512C40.0664 9.24512 48.6388 13.7711 48.6388 26.7256C48.6388 40.5364 40.0664 44.2061 40.0664 44.2061" stroke="white" stroke-width="0.456708" stroke-linecap="round" stroke-linejoin="round"/>
<path d="M60.5885 38.6183L46.6794 34.9236L51.0912 48.6225L53.8977 43.2745L59.8189 48.8943L61.3146 47.3186L55.3934 41.6988L60.5885 38.6183Z" fill="url(#paint16_linear_206_78)"/>
<path d="M13.6685 145.696C21.2475 146.773 22.1175 147.648 23.1999 155.227C24.2778 147.648 25.1524 146.778 32.7314 145.696C25.1524 144.618 24.2823 143.743 23.1999 136.164C22.1221 143.743 21.2475 144.618 13.6685 145.696Z" fill="url(#paint17_linear_206_78)"/>
<path d="M92.2908 102.509C93.0521 102.509 93.7822 102.207 94.3205 101.669C94.8588 101.13 95.1612 100.4 95.1612 99.639C95.1612 98.8777 94.8588 98.1476 94.3205 97.6093C93.7822 97.071 93.0521 96.7686 92.2908 96.7686C91.9245 96.7684 91.5617 96.8389 91.2221 96.9764C91.1833 96.9915 91.1479 97.0141 91.1179 97.043C91.0879 97.0719 91.0639 97.1065 91.0473 97.1447C91.0308 97.1829 91.0219 97.2241 91.0214 97.2657C91.0208 97.3074 91.0285 97.3487 91.044 97.3874C91.0755 97.4656 91.1366 97.5282 91.214 97.5615C91.2914 97.5949 91.3789 97.5963 91.4573 97.5655C91.7221 97.4581 92.0051 97.4031 92.2908 97.4034C92.733 97.4034 93.1652 97.5345 93.5328 97.7801C93.9005 98.0258 94.187 98.3749 94.3562 98.7834C94.5254 99.1919 94.5697 99.6414 94.4835 100.075C94.3972 100.509 94.1843 100.907 93.8716 101.22C93.559 101.532 93.1606 101.745 92.727 101.832C92.2933 101.918 91.8438 101.874 91.4353 101.704C91.0268 101.535 90.6777 101.249 90.432 100.881C90.1864 100.513 90.0552 100.081 90.0552 99.639C90.0557 99.4241 90.0864 99.2104 90.1466 99.0041C90.1614 98.9634 90.1678 98.9201 90.1653 98.8769C90.1627 98.8337 90.1514 98.7914 90.1319 98.7527C90.1124 98.714 90.0853 98.6797 90.052 98.6519C90.0188 98.6242 89.9803 98.6035 89.9387 98.5911C89.8972 98.5788 89.8536 98.5751 89.8106 98.5802C89.7676 98.5854 89.7261 98.5993 89.6887 98.6211C89.6513 98.6429 89.6187 98.6721 89.593 98.7069C89.5672 98.7418 89.5489 98.7815 89.5392 98.8237C89.4597 99.0882 89.4197 99.3629 89.4204 99.639C89.4216 100.4 89.7244 101.129 90.2625 101.667C90.8005 102.205 91.5299 102.508 92.2908 102.509Z" fill="url(#paint18_linear_206_78)"/>
<path d="M169.216 153.215C169.585 153.216 169.95 153.135 170.284 152.979C170.619 152.822 170.914 152.593 171.149 152.309C171.385 152.024 171.554 151.691 171.645 151.334C171.737 150.976 171.748 150.603 171.678 150.24C171.608 149.878 171.458 149.535 171.24 149.237C171.022 148.94 170.741 148.694 170.416 148.518C170.092 148.341 169.732 148.239 169.364 148.218C168.995 148.198 168.627 148.259 168.285 148.397C168.249 148.41 168.217 148.429 168.19 148.454C168.163 148.48 168.141 148.51 168.125 148.544C168.11 148.578 168.102 148.615 168.101 148.652C168.101 148.69 168.108 148.727 168.122 148.761C168.136 148.796 168.156 148.827 168.183 148.853C168.209 148.88 168.241 148.9 168.276 148.914C168.31 148.928 168.347 148.934 168.385 148.933C168.422 148.933 168.458 148.924 168.492 148.909C168.901 148.745 169.353 148.724 169.775 148.851C170.197 148.978 170.564 149.243 170.815 149.605C171.066 149.967 171.187 150.403 171.157 150.843C171.128 151.282 170.951 151.699 170.655 152.025C170.358 152.35 169.96 152.565 169.525 152.635C169.09 152.705 168.644 152.626 168.261 152.409C167.877 152.193 167.578 151.853 167.413 151.445C167.248 151.037 167.226 150.584 167.351 150.162C167.372 150.092 167.364 150.016 167.329 149.952C167.294 149.887 167.235 149.839 167.165 149.819C167.094 149.798 167.019 149.806 166.954 149.84C166.89 149.875 166.842 149.934 166.821 150.005C166.713 150.377 166.693 150.77 166.762 151.152C166.831 151.534 166.988 151.894 167.22 152.206C167.452 152.517 167.753 152.77 168.1 152.945C168.446 153.12 168.828 153.213 169.216 153.215Z" fill="url(#paint19_linear_206_78)"/>
<path d="M186.268 187.067H8.15184C7.92412 187.067 7.70573 186.976 7.54471 186.815C7.38369 186.654 7.29323 186.436 7.29323 186.208C7.29262 186.095 7.31439 185.983 7.35727 185.878C7.40015 185.773 7.4633 185.678 7.54309 185.598C7.62288 185.518 7.71773 185.454 7.8222 185.411C7.92667 185.367 8.0387 185.345 8.15184 185.345H186.268C186.495 185.345 186.714 185.435 186.875 185.596C187.036 185.757 187.126 185.976 187.126 186.203C187.127 186.316 187.105 186.429 187.062 186.533C187.019 186.638 186.956 186.733 186.877 186.813C186.797 186.894 186.702 186.957 186.597 187.001C186.493 187.044 186.381 187.067 186.268 187.067Z" fill="url(#paint20_linear_206_78)"/>
</g>
<defs>
<linearGradient id="paint0_linear_206_78" x1="36.6877" y1="99.0862" x2="43.44" y2="100.187" gradientUnits="userSpaceOnUse">
<stop stop-color="#0AD491"/>
<stop offset="1" stop-color="#003366"/>
</linearGradient>
<linearGradient id="paint1_linear_206_78" x1="47.6872" y1="99.088" x2="54.4395" y2="100.189" gradientUnits="userSpaceOnUse">
<stop stop-color="#0AD491"/>
<stop offset="1" stop-color="#003366"/>
</linearGradient>
<linearGradient id="paint2_linear_206_78" x1="58.7358" y1="98.8489" x2="65.3919" y2="100.431" gradientUnits="userSpaceOnUse">
<stop stop-color="#0AD491"/>
<stop offset="1" stop-color="#003366"/>
</linearGradient>
<linearGradient id="paint3_linear_206_78" x1="95.9901" y1="142.325" x2="95.9901" y2="177.759" gradientUnits="userSpaceOnUse">
<stop stop-color="#0AD491"/>
<stop offset="1" stop-color="#003366"/>
</linearGradient>
<linearGradient id="paint4_linear_206_78" x1="80.9994" y1="142.732" x2="80.9994" y2="172.498" gradientUnits="userSpaceOnUse">
<stop stop-color="#0AD491"/>
<stop offset="1" stop-color="#003366"/>
</linearGradient>
<linearGradient id="paint5_linear_206_78" x1="122.14" y1="134.737" x2="122.14" y2="215.382" gradientUnits="userSpaceOnUse">
<stop stop-color="#0AD491"/>
<stop offset="1" stop-color="#003366"/>
</linearGradient>
<linearGradient id="paint6_linear_206_78" x1="129.728" y1="173.249" x2="92.9516" y2="161.879" gradientUnits="userSpaceOnUse">
<stop stop-color="#09BB8B"/>
<stop offset="1" stop-color="#003366"/>
</linearGradient>
<linearGradient id="paint7_linear_206_78" x1="139.97" y1="23.7023" x2="139.97" y2="38.8878" gradientUnits="userSpaceOnUse">
<stop stop-color="#0AD491"/>
<stop offset="1" stop-color="#003366"/>
</linearGradient>
<linearGradient id="paint8_linear_206_78" x1="173.03" y1="84.7109" x2="173.03" y2="126.13" gradientUnits="userSpaceOnUse">
<stop stop-color="#0AD491"/>
<stop offset="1" stop-color="#003366"/>
</linearGradient>
<linearGradient id="paint9_linear_206_78" x1="170.832" y1="114.84" x2="170.832" y2="115.84" gradientUnits="userSpaceOnUse">
<stop stop-color="#0AD491"/>
<stop offset="1" stop-color="#003366"/>
</linearGradient>
<linearGradient id="paint10_linear_206_78" x1="172.565" y1="94.1212" x2="172.565" y2="114.841" gradientUnits="userSpaceOnUse">
<stop stop-color="#0AD491"/>
<stop offset="1" stop-color="#003366"/>
</linearGradient>
<linearGradient id="paint11_linear_206_78" x1="173.031" y1="114.84" x2="173.031" y2="126.119" gradientUnits="userSpaceOnUse">
<stop stop-color="#0AD491"/>
<stop offset="1" stop-color="#003366"/>
</linearGradient>
<linearGradient id="paint12_linear_206_78" x1="119.998" y1="53.2717" x2="119.998" y2="74.1821" gradientUnits="userSpaceOnUse">
<stop stop-color="#0AD491"/>
<stop offset="1" stop-color="#003366"/>
</linearGradient>
<linearGradient id="paint13_linear_206_78" x1="120.192" y1="74.4082" x2="120.192" y2="75.4082" gradientUnits="userSpaceOnUse">
<stop stop-color="#0AD491"/>
<stop offset="1" stop-color="#003366"/>
</linearGradient>
<linearGradient id="paint14_linear_206_78" x1="21.7577" y1="8.41855" x2="58.3728" y2="45.0336" gradientUnits="userSpaceOnUse">
<stop stop-color="#0AD491"/>
<stop offset="1" stop-color="#003366"/>
</linearGradient>
<linearGradient id="paint15_linear_206_78" x1="40.0662" y1="9.24512" x2="40.0662" y2="44.2061" gradientUnits="userSpaceOnUse">
<stop stop-color="#0AD491"/>
<stop offset="1" stop-color="#003366"/>
</linearGradient>
<linearGradient id="paint16_linear_206_78" x1="53.997" y1="34.9236" x2="53.997" y2="48.8943" gradientUnits="userSpaceOnUse">
<stop stop-color="#0AD491"/>
<stop offset="1" stop-color="#003366"/>
</linearGradient>
<linearGradient id="paint17_linear_206_78" x1="23.1999" y1="136.164" x2="23.1999" y2="155.227" gradientUnits="userSpaceOnUse">
<stop stop-color="#0AD491"/>
<stop offset="1" stop-color="#003366"/>
</linearGradient>
<linearGradient id="paint18_linear_206_78" x1="92.2908" y1="96.7686" x2="92.2908" y2="102.509" gradientUnits="userSpaceOnUse">
<stop stop-color="#0AD491"/>
<stop offset="1" stop-color="#003366"/>
</linearGradient>
<linearGradient id="paint19_linear_206_78" x1="169.222" y1="148.214" x2="169.222" y2="153.215" gradientUnits="userSpaceOnUse">
<stop stop-color="#0AD491"/>
<stop offset="1" stop-color="#003366"/>
</linearGradient>
<linearGradient id="paint20_linear_206_78" x1="97.2098" y1="185.345" x2="97.2098" y2="187.067" gradientUnits="userSpaceOnUse">
<stop stop-color="#0AD491"/>
<stop offset="1" stop-color="#003366"/>
</linearGradient>
<clipPath id="clip0_206_78">
<rect width="205" height="186.46" fill="white" transform="translate(0.387695 0.606567)"/>
</clipPath>
</defs>
</svg>
