<svg width="205" height="193" viewBox="0 0 205 193" fill="none" xmlns="http://www.w3.org/2000/svg">
<g clipPath="url(#clip0_206_250)">
<path d="M16.8486 190.781C16.8486 190.781 -4.99799 143.684 1.06268 105.501C5.16485 79.6469 29.7177 56.8303 53.1038 59.5203C128.964 68.2756 101.524 15.0724 155.799 11.961C189.413 10.0372 205.109 48.6167 204.998 91.2612C204.877 138.679 186.862 190.781 186.862 190.781H16.8486Z" fill="#FDFFF9"/>
<path d="M82.3608 105.709L76.8349 92.6549V77.6259C76.8349 76.2371 76.2832 74.9052 75.3012 73.9231C74.3191 72.9411 72.9872 72.3894 71.5984 72.3894H40.0264C38.6376 72.3894 37.3057 72.9411 36.3237 73.9231C35.3416 74.9052 34.7899 76.2371 34.7899 77.6259V94.5254C34.7899 95.9142 35.3416 97.2462 36.3237 98.2282C37.3057 99.2102 38.6376 99.7619 40.0264 99.7619H70.4802L80.7727 106.989C80.9613 107.121 81.1875 107.187 81.4171 107.179C81.6468 107.171 81.8676 107.089 82.0466 106.944C82.2255 106.8 82.3528 106.602 82.4095 106.379C82.4661 106.156 82.4491 105.921 82.3608 105.709Z" fill="white"/>
<path d="M45.7257 89.2148C47.4581 89.2148 48.8625 87.8104 48.8625 86.078C48.8625 84.3456 47.4581 82.9412 45.7257 82.9412C43.9933 82.9412 42.5889 84.3456 42.5889 86.078C42.5889 87.8104 43.9933 89.2148 45.7257 89.2148Z" fill="url(#paint0_linear_206_250)"/>
<path d="M55.8121 89.2148C57.5445 89.2148 58.9489 87.8104 58.9489 86.078C58.9489 84.3456 57.5445 82.9412 55.8121 82.9412C54.0797 82.9412 52.6753 84.3456 52.6753 86.078C52.6753 87.8104 54.0797 89.2148 55.8121 89.2148Z" fill="url(#paint1_linear_206_250)"/>
<path d="M65.8963 89.2148C67.6288 89.2148 69.0332 87.8104 69.0332 86.078C69.0332 84.3456 67.6288 82.9412 65.8963 82.9412C64.1639 82.9412 62.7595 84.3456 62.7595 86.078C62.7595 87.8104 64.1639 89.2148 65.8963 89.2148Z" fill="url(#paint2_linear_206_250)"/>
<path d="M137.872 175.379V182.259C137.872 183.491 138.361 184.672 139.232 185.543C140.103 186.414 141.284 186.903 142.516 186.903H146.252C147.322 186.903 148.347 187.328 149.104 188.084C149.86 188.841 150.285 189.866 150.285 190.936V192.105H105.258V190.936C105.258 189.866 105.683 188.841 106.439 188.084C107.196 187.328 108.221 186.903 109.291 186.903H113.025C114.257 186.903 115.438 186.414 116.31 185.543C117.181 184.672 117.671 183.491 117.671 182.259V175.379H137.872Z" fill="url(#paint3_linear_206_250)"/>
<path d="M171.768 167.647V117.671C171.768 113.4 168.306 109.939 164.036 109.939H91.5094C87.2391 109.939 83.7773 113.4 83.7773 117.671V167.647C83.7773 171.917 87.2391 175.379 91.5094 175.379H164.036C168.306 175.379 171.768 171.917 171.768 167.647Z" fill="url(#paint4_linear_206_250)"/>
<path d="M91.5094 172.309H164.034C166.609 172.309 168.696 170.222 168.696 167.647V117.673C168.696 115.098 166.609 113.011 164.034 113.011H91.5094C88.9344 113.011 86.847 115.098 86.847 117.673V167.647C86.847 170.222 88.9344 172.309 91.5094 172.309Z" fill="#FDFFF9"/>
<path d="M136.277 115.428C132.969 116.627 134.888 105.802 133.246 106.434C130.786 107.385 130.288 108.371 130.406 107.221C131.013 101.376 119.211 101.612 116.963 105.501C116.284 106.672 114.016 115.687 120.667 116.594C121.447 116.701 123.834 129.174 137.775 124.657C144.18 122.579 142.659 113.11 136.277 115.428Z" fill="#111111"/>
<path d="M92.8313 162.471C94.9542 158.32 100.545 146.921 103.809 142.622C106.522 141.682 115.032 149.629 115.032 149.629L104.659 166.094C100.783 171.052 91.7502 164.591 92.8313 162.471Z" fill="#FF6F61"/>
<path d="M144.203 146.884C144.203 146.884 148 168.182 150.333 168.332C151.643 168.36 152.951 168.23 154.23 167.946C157.876 167.214 160.063 163.202 158.878 159.463C156.864 153.123 154.068 144.712 154.068 144.712L144.203 146.884Z" fill="#FF6F61"/>
<path d="M107.726 135.878C112.747 130.686 119.935 128.618 129.3 129.301C133.054 129.574 145.377 130.651 149.919 136.137C159.941 148.247 158.369 154.764 158.369 154.764C158.369 154.764 152.827 160.088 146.099 158.512C146.005 162.269 146.502 172.376 146.502 172.376L109.134 172.55L111.652 160.137L108.675 155.292L109.414 153.588L100.121 148.338C100.121 148.338 104.242 139.478 107.726 135.878Z" fill="url(#paint5_linear_206_250)"/>
<path d="M135.23 114.529C134.964 120.058 127.607 124.354 123.373 124.153C119.139 123.951 118.426 119.377 118.692 113.849C118.958 108.321 120.776 106.177 125.051 105.561C129.246 104.955 135.497 109.001 135.23 114.529Z" fill="#FF6F61"/>
<path d="M123.644 121.002L122.905 130.382C122.804 131.572 125.776 133.959 128.663 133.959C133.846 133.959 134.506 130.769 134.416 129.653L133.274 119.176L123.644 121.002Z" fill="#FF6F61"/>
<path d="M121.641 114.555C121.641 114.925 121.438 115.229 121.178 115.233C120.919 115.238 120.695 114.941 120.69 114.571C120.685 114.201 120.891 113.895 121.153 113.89C121.415 113.886 121.635 114.184 121.641 114.555Z" fill="#111111"/>
<path d="M126.181 114.476C126.181 114.846 125.98 115.15 125.718 115.154C125.456 115.159 125.234 114.863 125.227 114.492C125.22 114.122 125.431 113.816 125.69 113.812C125.949 113.807 126.167 114.106 126.181 114.476Z" fill="#111111"/>
<path d="M125.026 119.231C122.644 119.812 121.725 119 121.725 119C121.725 119 121.551 120.553 123.167 120.706C124.783 120.858 125.026 119.231 125.026 119.231Z" fill="white"/>
<path d="M122.975 114.543C122.623 115.379 121.762 116.914 122.28 117.465C122.799 118.016 123.836 117.733 123.836 117.733" stroke="#111111" stroke-width="0.463" stroke-miterlimit="10" stroke-linecap="round"/>
<path d="M120.213 113.251C120.213 113.251 121.195 112.571 122.007 113.24" stroke="#111111" stroke-width="0.463" stroke-miterlimit="10" stroke-linecap="round"/>
<path d="M124.558 113.228C124.558 113.228 126.223 112.453 126.751 113.272" stroke="#111111" stroke-width="0.463" stroke-miterlimit="10" stroke-linecap="round"/>
<path d="M123.373 124.153C123.373 124.153 126.751 124.863 129.985 121.914" stroke="#111111" stroke-width="0.463" stroke-miterlimit="10" stroke-linecap="round"/>
<path d="M117.974 109.853C118.046 110.267 127.135 111.603 128.95 109.429C130.32 107.783 130.674 109.288 130.487 110.147C129.92 112.738 133.728 123.259 133.98 125.641C135.476 126.398 144.122 101.857 128.656 102.464C124.195 102.64 117.034 104.485 117.974 109.853Z" fill="#111111"/>
<path d="M134.038 115.643C134.008 116.068 133.852 116.475 133.592 116.812C133.332 117.15 132.978 117.403 132.574 117.541C132.171 117.679 131.736 117.695 131.323 117.587C130.911 117.479 130.539 117.252 130.255 116.935C129.97 116.617 129.786 116.223 129.724 115.801C129.662 115.379 129.726 114.949 129.907 114.563C130.088 114.177 130.379 113.853 130.743 113.631C131.108 113.41 131.529 113.3 131.955 113.316C132.539 113.349 133.087 113.613 133.478 114.049C133.868 114.485 134.07 115.058 134.038 115.643Z" fill="#FF6F61"/>
<path d="M130.811 114.819C130.811 114.819 132.795 113.978 133.179 115.428" stroke="#111111" stroke-width="0.463" stroke-miterlimit="10" stroke-linecap="round"/>
<path d="M131.49 115.696L132.128 114.661" stroke="#111111" stroke-width="0.463" stroke-miterlimit="10" stroke-linecap="round"/>
<path d="M112.155 147.796L109.414 153.588" stroke="#111111" stroke-width="0.463" stroke-miterlimit="10" stroke-linecap="round"/>
<path d="M129.133 148.338L126.94 155.556L131.781 161.188" stroke="#111111" stroke-width="0.463" stroke-miterlimit="10" stroke-linecap="round"/>
<path d="M141.157 147.796L144.326 158.121L146.423 158.459" stroke="#111111" stroke-width="0.463" stroke-miterlimit="10" stroke-linecap="round"/>
<path d="M155.799 151.618C155.799 151.618 153.813 155.984 143.437 155.234" stroke="#111111" stroke-width="0.463" stroke-miterlimit="10" stroke-linecap="round"/>
<path d="M132.533 162.128C132.533 162.128 142.303 159.308 150.718 158.609C153.014 160.334 154.23 167.946 154.23 167.946L132.976 169.946L132.533 162.128Z" fill="#FF6F61"/>
<path d="M90.7478 140.909C90.7478 140.909 100.223 148.338 103.462 156.533C108.64 166.374 94.4587 166.112 92.7433 163.517L83.9463 145.747L90.7478 140.909Z" fill="#FF6F61"/>
<path d="M73.1214 133.799C73.8761 133.406 78.1009 136.767 78.7214 136.834C79.3418 136.901 79.2955 136.557 79.0686 136.371C77.2401 134.907 75.5898 133.234 74.1516 131.385C73.7765 130.878 74.4386 130.04 74.897 130.366C76.8462 131.755 79.7191 134.864 79.99 134.943C80.2608 135.022 80.402 134.637 80.321 134.54C78.645 132.535 75.8461 129.989 75.6656 128.644C75.6169 128.276 76.6379 128.26 76.8115 128.375C78.6403 129.6 80.828 132.336 81.8188 133.297C82.1545 133.369 82.349 133.431 82.4879 133.204C82.6268 132.978 79.5085 127.75 79.4622 127.417C79.4159 127.084 80.0131 127.028 80.5062 127.255C81.7216 127.813 83.8792 130.521 84.6732 132.04C84.8839 132.443 86.7336 135.006 87.8216 135.431C88.9097 135.857 88.2152 132.274 88.324 131.656C88.4328 131.038 89.294 130.433 89.7546 130.788C90.2153 131.142 91.5418 136.378 91.5557 137.073C91.5696 137.767 90.5278 141.788 90.5278 141.788L91.639 145.055L84.8677 146.979C84.8677 146.979 83.3699 144.532 82.7842 144.078C82.1985 143.624 78.5524 139.515 78.3533 139.216C78.1542 138.918 74.0127 135.767 73.6191 135.401C73.2256 135.036 72.3667 134.193 73.1214 133.799Z" fill="#FF6F61"/>
<path d="M119.12 171.08C119.208 170.235 124.725 169.703 125.126 169.228C125.526 168.754 125.211 168.596 124.931 168.682C122.702 169.392 120.398 169.839 118.065 170.013C117.433 170.045 117.102 169.029 117.63 168.828C119.866 167.973 124.042 167.302 124.253 167.128C124.463 166.955 124.227 166.614 124.1 166.628C121.505 166.913 117.836 167.837 116.616 167.242C116.28 167.08 116.831 166.219 117.025 166.138C119.058 165.293 122.544 164.98 123.894 164.693C124.139 164.462 124.301 164.325 124.188 164.084C124.075 163.843 117.9 164.732 117.599 164.587C117.299 164.441 117.581 163.913 118.042 163.628C119.181 162.934 122.595 162.082 124.431 161.621C124.871 161.51 127.061 161.67 128.017 160.998C128.973 160.327 125.855 160.561 125.399 160.128C124.943 159.695 124.919 158.644 125.468 158.459C126.017 158.274 131.58 158.973 132.163 159.345C132.747 159.718 135.636 161.459 135.636 161.459L139.131 163.015L137.078 169.43C137.078 169.43 134.119 169.615 133.422 169.844C132.726 170.073 127.278 170.842 126.92 170.842C126.561 170.842 121.364 171.557 120.834 171.684C120.303 171.812 119.03 171.927 119.12 171.08Z" fill="#FF6F61"/>
<path d="M99.4198 149.541L104.594 154.764" stroke="#111111" stroke-width="0.463" stroke-miterlimit="10" stroke-linecap="round"/>
<path d="M110.784 150.692C110.784 150.692 104.316 146.638 102.832 146.245" stroke="#111111" stroke-width="0.463" stroke-miterlimit="10" stroke-linecap="round"/>
<path d="M136.897 130.91C136.897 130.91 130.566 143.092 126.751 142.545C123.797 142.126 121.72 131.723 121.72 131.723C121.72 131.723 129.702 136.286 136.897 130.91Z" fill="#FDFFF9"/>
<path d="M137.742 130.415L134.423 127.952C134.423 127.952 128.89 132.459 127.813 132.459C127.813 133.959 128.45 137.184 128.45 137.184L137.742 130.415Z" fill="white"/>
<path d="M127.813 132.459L130.834 134.973L135.24 132.112" stroke="#111111" stroke-width="0.463" stroke-miterlimit="10" stroke-linecap="round"/>
<path d="M119.222 130.204L122.646 127.952C122.646 127.952 126.924 132.459 128.001 132.459C128.001 133.959 127.364 137.184 127.364 137.184L119.222 130.204Z" fill="white"/>
<path d="M127.813 132.459L124.975 134.973L120.989 131.723" stroke="#111111" stroke-width="0.463" stroke-miterlimit="10" stroke-linecap="round"/>
<path d="M127.813 134.237L126.751 142.545" stroke="#111111" stroke-width="0.463" stroke-miterlimit="10" stroke-linecap="round"/>
<path d="M50.0038 17.1026C49.5061 19.7166 49.5334 22.4034 50.0843 25.0067C50.6351 27.61 51.6985 30.0776 53.2124 32.2659L59.4259 28.0364C57.8481 25.7675 57.0599 23.043 57.1824 20.2822C57.305 17.5215 58.3316 14.8775 60.1041 12.7574L55.7682 6.40503C52.7858 9.28829 50.7717 13.0261 50.0038 17.1026Z" fill="#FFB347"/>
<path d="M57.8424 4.65491L62.0765 10.8684C64.5568 8.95109 67.6631 8.02818 70.7879 8.2802L72.1884 0.872206C67.0986 0.251432 61.9644 1.60519 57.8424 4.65491Z" fill="url(#paint6_linear_206_250)"/>
<path d="M54.8977 34.3865C57.0061 36.704 59.6265 38.4971 62.5502 39.6231C65.474 40.749 68.6202 41.1767 71.7384 40.872C74.8566 40.5674 77.8606 39.5388 80.5111 37.8682C83.1616 36.1976 85.3853 33.9311 87.0053 31.2494C88.6252 28.5676 89.5965 25.5446 89.8418 22.4212C90.0872 19.2978 89.5998 16.1602 88.4185 13.2584C87.2372 10.3566 85.3946 7.77075 83.0374 5.70679C80.6803 3.64284 77.8738 2.15781 74.8414 1.37L73.4385 8.77799C75.2527 9.32905 76.9193 10.2822 78.3141 11.5665C79.7089 12.8508 80.7961 14.4332 81.4948 16.1958C82.1934 17.9585 82.4854 19.856 82.3492 21.7472C82.213 23.6383 81.6519 25.4744 80.7079 27.1187C79.7638 28.763 78.461 30.1732 76.8965 31.2443C75.332 32.3154 73.546 33.0198 71.6715 33.3051C69.7971 33.5905 67.8824 33.4493 66.0701 32.8923C64.2577 32.3352 62.5943 31.3765 61.2038 30.0875L54.8977 34.3865Z" fill="url(#paint7_linear_206_250)"/>
<path d="M156.725 69.799H141.21" stroke="url(#paint8_linear_206_250)" stroke-width="0.463" stroke-linecap="round" stroke-linejoin="round"/>
<path d="M162.175 73.922H146.657" stroke="#FAF7EF" stroke-width="0.463" stroke-linecap="round" stroke-linejoin="round"/>
<path d="M156.725 78.8877H141.21" stroke="#FAF7EF" stroke-width="0.463" stroke-linecap="round" stroke-linejoin="round"/>
<path d="M54.0869 139.794C55.5508 130.776 49.4267 122.278 40.4083 120.814C31.3899 119.35 22.8923 125.474 21.4284 134.493C19.9646 143.511 26.0887 152.009 35.1071 153.473C44.1255 154.937 52.623 148.812 54.0869 139.794Z" stroke="url(#paint9_linear_206_250)" stroke-width="0.463" stroke-linecap="round" stroke-linejoin="round"/>
<path d="M48.7832 138.933C49.7716 132.844 45.6366 127.106 39.5473 126.118C33.4581 125.129 27.7205 129.264 26.7321 135.354C25.7437 141.443 29.8787 147.18 35.9679 148.169C42.0572 149.157 47.7948 145.022 48.7832 138.933Z" fill="url(#paint10_linear_206_250)"/>
<path d="M26.5876 137.138H48.9251" stroke="white" stroke-width="0.463" stroke-linecap="round" stroke-linejoin="round"/>
<path d="M28.8563 130.417C34.6701 132.107 40.8449 132.107 46.6587 130.417" stroke="white" stroke-width="0.463" stroke-linecap="round" stroke-linejoin="round"/>
<path d="M28.8563 143.856C34.6704 142.168 40.8445 142.168 46.6587 143.856" stroke="white" stroke-width="0.463" stroke-linecap="round" stroke-linejoin="round"/>
<path d="M37.7576 148.305V125.968" stroke="white" stroke-width="0.463" stroke-linecap="round" stroke-linejoin="round"/>
<path d="M37.7576 125.961C37.7576 125.961 32.2803 128.852 32.2803 137.131C32.2803 145.955 37.7576 148.298 37.7576 148.298" stroke="white" stroke-width="0.463" stroke-linecap="round" stroke-linejoin="round"/>
<path d="M37.7576 125.961C37.7576 125.961 43.2349 128.852 43.2349 137.131C43.2349 145.955 37.7576 148.298 37.7576 148.298" stroke="white" stroke-width="0.463" stroke-linecap="round" stroke-linejoin="round"/>
<path d="M50.8697 144.735L41.9824 142.374L44.8021 151.127L46.5939 147.71L50.3766 151.301L51.3327 150.296L47.55 146.703L50.8697 144.735Z" fill="url(#paint11_linear_206_250)"/>
<path d="M104.006 69.4748C109.395 70.2434 110.025 70.8638 110.784 76.2555C111.55 70.8638 112.173 70.2365 117.565 69.4748C112.173 68.7086 111.546 68.0858 110.784 62.6965C110.018 68.0858 109.395 68.7132 104.006 69.4748Z" fill="url(#paint12_linear_206_250)"/>
<path d="M21.2147 104.216C21.5617 104.216 21.9042 104.139 22.218 103.991C22.5317 103.843 22.8089 103.627 23.0296 103.36C23.2503 103.092 23.4092 102.779 23.4948 102.443C23.5804 102.106 23.5906 101.755 23.5248 101.415C23.459 101.074 23.3187 100.752 23.114 100.472C22.9093 100.192 22.6452 99.9608 22.3406 99.7947C22.0361 99.6286 21.6986 99.5318 21.3522 99.5113C21.0059 99.4908 20.6594 99.5471 20.3373 99.6762C20.2786 99.7056 20.233 99.756 20.2098 99.8174C20.1865 99.8788 20.1871 99.9468 20.2116 100.008C20.2361 100.069 20.2827 100.118 20.342 100.146C20.4013 100.175 20.4691 100.179 20.5318 100.16C20.7524 100.071 20.9884 100.026 21.2263 100.028C21.5889 100.028 21.9434 100.136 22.2449 100.337C22.5464 100.539 22.7814 100.825 22.9202 101.16C23.059 101.495 23.0953 101.864 23.0246 102.219C22.9538 102.575 22.7792 102.902 22.5228 103.158C22.2664 103.414 21.9397 103.589 21.584 103.66C21.2283 103.731 20.8597 103.694 20.5247 103.555C20.1896 103.417 19.9033 103.182 19.7018 102.88C19.5004 102.579 19.3928 102.224 19.3928 101.862C19.3924 101.685 19.4182 101.51 19.4692 101.341C19.4886 101.274 19.481 101.203 19.4481 101.142C19.4151 101.082 19.3595 101.036 19.2933 101.017C19.2605 101.007 19.226 101.003 19.1919 101.007C19.1577 101.01 19.1246 101.021 19.0945 101.037C19.0644 101.053 19.0378 101.075 19.0162 101.102C18.9947 101.129 18.9787 101.16 18.9692 101.193C18.9042 101.41 18.8715 101.635 18.872 101.862C18.8726 102.484 19.1192 103.081 19.5581 103.522C19.997 103.963 20.5925 104.212 21.2147 104.216Z" fill="url(#paint13_linear_206_250)"/>
<path d="M68.1766 172.467H53.1036V191.184H68.1766V172.467Z" fill="url(#paint14_linear_206_250)"/>
<path d="M74.4865 182.476C74.8407 180.294 73.359 178.237 71.1769 177.883C68.9949 177.529 66.9389 179.011 66.5847 181.193C66.2305 183.375 67.7122 185.431 69.8943 185.785C72.0763 186.139 74.1323 184.658 74.4865 182.476Z" stroke="url(#paint15_linear_206_250)" stroke-width="0.463" stroke-linecap="round" stroke-linejoin="round"/>
<path d="M26.4857 173.717C31.0926 174.372 31.625 174.904 32.2732 179.504C32.9284 174.897 33.4585 174.365 38.0607 173.717C33.4515 173.062 32.9214 172.532 32.2732 167.929C31.625 172.532 31.0926 173.062 26.4857 173.717Z" fill="url(#paint16_linear_206_250)"/>
<path d="M183.466 98.3683C184.328 98.3683 185.154 98.026 185.763 97.4167C186.373 96.8074 186.715 95.981 186.715 95.1192C186.715 94.2575 186.373 93.4311 185.763 92.8218C185.154 92.2125 184.328 91.8701 183.466 91.8701C183.051 91.8686 182.64 91.9472 182.255 92.1016C182.172 92.1411 182.107 92.2107 182.074 92.2963C182.04 92.3819 182.041 92.4771 182.075 92.5624C182.109 92.6477 182.175 92.7168 182.258 92.7555C182.341 92.7942 182.436 92.7996 182.524 92.7707C183.055 92.5589 183.642 92.5337 184.19 92.6992C184.737 92.8647 185.212 93.211 185.537 93.6816C185.862 94.1522 186.018 94.7192 185.979 95.2898C185.939 95.8603 185.708 96.4007 185.322 96.8225C184.935 97.2443 184.417 97.5225 183.852 97.6116C183.288 97.7007 182.709 97.5955 182.212 97.3131C181.714 97.0307 181.328 96.5879 181.115 96.0571C180.902 95.5263 180.875 94.939 181.04 94.3912C181.067 94.2991 181.056 94.2 181.01 94.1158C180.964 94.0316 180.886 93.9691 180.794 93.9421C180.702 93.9151 180.603 93.9257 180.519 93.9717C180.435 94.0178 180.372 94.0954 180.345 94.1875C180.201 94.672 180.172 95.1836 180.26 95.6815C180.349 96.1793 180.553 96.6494 180.856 97.0544C181.158 97.4593 181.552 97.7878 182.004 98.0135C182.457 98.2393 182.956 98.356 183.461 98.3545L183.466 98.3683Z" fill="url(#paint17_linear_206_250)"/>
<path d="M192.883 192.901H12.3136C12.0827 192.901 11.8613 192.809 11.6981 192.646C11.5348 192.483 11.4431 192.262 11.4431 192.031C11.4437 191.8 11.5357 191.579 11.6989 191.417C11.8621 191.254 12.0831 191.163 12.3136 191.163H192.883C193.114 191.163 193.334 191.254 193.497 191.417C193.66 191.58 193.751 191.8 193.751 192.031C193.752 192.145 193.73 192.258 193.686 192.364C193.643 192.469 193.579 192.565 193.498 192.646C193.417 192.727 193.322 192.791 193.216 192.835C193.111 192.879 192.998 192.901 192.883 192.901Z" fill="url(#paint18_linear_206_250)"/>
</g>
<defs>
<linearGradient id="paint0_linear_206_250" x1="45.7257" y1="82.9412" x2="45.7257" y2="89.2148" gradientUnits="userSpaceOnUse">
<stop stop-color="#0AD491"/>
<stop offset="1" stop-color="#003366"/>
</linearGradient>
<linearGradient id="paint1_linear_206_250" x1="55.8121" y1="82.9412" x2="55.8121" y2="89.2148" gradientUnits="userSpaceOnUse">
<stop stop-color="#0AD491"/>
<stop offset="1" stop-color="#003366"/>
</linearGradient>
<linearGradient id="paint2_linear_206_250" x1="65.8963" y1="82.9412" x2="65.8963" y2="89.2148" gradientUnits="userSpaceOnUse">
<stop stop-color="#0AD491"/>
<stop offset="1" stop-color="#003366"/>
</linearGradient>
<linearGradient id="paint3_linear_206_250" x1="127.772" y1="175.379" x2="127.772" y2="192.105" gradientUnits="userSpaceOnUse">
<stop stop-color="#0AD491"/>
<stop offset="1" stop-color="#003366"/>
</linearGradient>
<linearGradient id="paint4_linear_206_250" x1="171.768" y1="142.659" x2="83.7773" y2="142.659" gradientUnits="userSpaceOnUse">
<stop stop-color="#0AD491"/>
<stop offset="1" stop-color="#003366"/>
</linearGradient>
<linearGradient id="paint5_linear_206_250" x1="129.29" y1="129.175" x2="133.175" y2="250.834" gradientUnits="userSpaceOnUse">
<stop stop-color="#0AD491"/>
<stop offset="1" stop-color="#003366"/>
</linearGradient>
<linearGradient id="paint6_linear_206_250" x1="65.0154" y1="0.724731" x2="65.0154" y2="10.8684" gradientUnits="userSpaceOnUse">
<stop stop-color="#0AD491"/>
<stop offset="1" stop-color="#003366"/>
</linearGradient>
<linearGradient id="paint7_linear_206_250" x1="72.4007" y1="1.37" x2="72.4007" y2="40.9674" gradientUnits="userSpaceOnUse">
<stop stop-color="#0AD491"/>
<stop offset="1" stop-color="#003366"/>
</linearGradient>
<linearGradient id="paint8_linear_206_250" x1="148.968" y1="69.799" x2="148.968" y2="70.799" gradientUnits="userSpaceOnUse">
<stop stop-color="#0AD491"/>
<stop offset="1" stop-color="#003366"/>
</linearGradient>
<linearGradient id="paint9_linear_206_250" x1="21.4284" y1="134.493" x2="54.0869" y2="139.794" gradientUnits="userSpaceOnUse">
<stop stop-color="#0AD491"/>
<stop offset="1" stop-color="#003366"/>
</linearGradient>
<linearGradient id="paint10_linear_206_250" x1="26.7321" y1="135.354" x2="48.7832" y2="138.933" gradientUnits="userSpaceOnUse">
<stop stop-color="#0AD491"/>
<stop offset="1" stop-color="#003366"/>
</linearGradient>
<linearGradient id="paint11_linear_206_250" x1="46.6576" y1="142.374" x2="46.6576" y2="151.301" gradientUnits="userSpaceOnUse">
<stop stop-color="#0AD491"/>
<stop offset="1" stop-color="#003366"/>
</linearGradient>
<linearGradient id="paint12_linear_206_250" x1="110.785" y1="62.6965" x2="110.785" y2="76.2555" gradientUnits="userSpaceOnUse">
<stop stop-color="#0AD491"/>
<stop offset="1" stop-color="#003366"/>
</linearGradient>
<linearGradient id="paint13_linear_206_250" x1="21.2198" y1="99.5072" x2="21.2198" y2="104.216" gradientUnits="userSpaceOnUse">
<stop stop-color="#0AD491"/>
<stop offset="1" stop-color="#003366"/>
</linearGradient>
<linearGradient id="paint14_linear_206_250" x1="60.6401" y1="172.467" x2="60.6401" y2="191.184" gradientUnits="userSpaceOnUse">
<stop stop-color="#0AD491"/>
<stop offset="1" stop-color="#003366"/>
</linearGradient>
<linearGradient id="paint15_linear_206_250" x1="66.5847" y1="181.193" x2="74.4865" y2="182.476" gradientUnits="userSpaceOnUse">
<stop stop-color="#0AD491"/>
<stop offset="1" stop-color="#003366"/>
</linearGradient>
<linearGradient id="paint16_linear_206_250" x1="32.2732" y1="167.929" x2="32.2732" y2="179.504" gradientUnits="userSpaceOnUse">
<stop stop-color="#0AD491"/>
<stop offset="1" stop-color="#003366"/>
</linearGradient>
<linearGradient id="paint17_linear_206_250" x1="183.462" y1="91.8701" x2="183.462" y2="98.3683" gradientUnits="userSpaceOnUse">
<stop stop-color="#0AD491"/>
<stop offset="1" stop-color="#003366"/>
</linearGradient>
<linearGradient id="paint18_linear_206_250" x1="102.597" y1="191.163" x2="102.597" y2="192.901" gradientUnits="userSpaceOnUse">
<stop stop-color="#0AD491"/>
<stop offset="1" stop-color="#003366"/>
</linearGradient>
<clipPath id="clip0_206_250">
<rect width="205" height="192.182" fill="white" transform="translate(0.00012207 0.71936)"/>
</clipPath>
</defs>
</svg>
