<svg width="29" height="29" viewBox="0 0 29 29" fill="none" xmlns="http://www.w3.org/2000/svg">
<path fill-rule="evenodd" clip-rule="evenodd" d="M14.4816 0.496094C17.5242 0.49608 19.9141 0.496066 21.7799 0.746913C23.6918 1.00398 25.2089 1.54154 26.4009 2.73347C27.5928 3.92541 28.1303 5.44244 28.3874 7.35445C28.6382 9.22032 28.6382 11.6102 28.6382 14.6528V14.8116C28.6382 17.8543 28.6382 20.2441 28.3874 22.11C28.1303 24.0219 27.5928 25.539 26.4009 26.731C25.2089 27.9229 23.6918 28.4604 21.7799 28.7175C19.9141 28.9683 17.5242 28.9683 14.4816 28.9683H14.3227C11.28 28.9683 8.89024 28.9683 7.02438 28.7175C5.11236 28.4604 3.59534 27.9229 2.40339 26.731C1.21146 25.539 0.673905 24.0219 0.416835 22.11C0.165988 20.2441 0.166002 17.8543 0.166016 14.8116V14.6528C0.166002 11.6101 0.165988 9.22032 0.416835 7.35445C0.673905 5.44244 1.21146 3.92541 2.40339 2.73347C3.59534 1.54154 5.11236 1.00398 7.02438 0.746913C8.89024 0.496066 11.2801 0.49608 14.3227 0.496094H14.4816ZM12.4741 9.51138C11.5648 8.60211 10.0906 8.60211 9.18131 9.51138C8.27203 10.4207 8.27203 11.8949 9.18131 12.8041L10.3728 13.9957C10.7796 14.4025 10.7796 15.0619 10.3728 15.4687C9.96599 15.8755 9.30645 15.8755 8.89964 15.4687L7.70817 14.2773C5.98529 12.5544 5.98529 9.76111 7.70817 8.03825C9.43103 6.31537 12.2243 6.31537 13.9473 8.03825L21.0962 15.1871C22.8189 16.91 22.8189 19.7033 21.0962 21.4262C19.3732 23.149 16.5799 23.149 14.857 21.4262L12.1762 18.7454C11.5051 18.0743 11.1776 17.2675 11.2112 16.4519C11.244 15.6551 11.6176 14.9516 12.156 14.458C13.2639 13.4421 15.1092 13.2716 16.5275 14.6901L17.9164 16.079C18.3232 16.4858 18.3232 17.1453 17.9164 17.5521C17.5096 17.9589 16.8502 17.9589 16.4434 17.5521L15.0545 16.1632C14.7248 15.8336 14.4242 15.7468 14.2025 15.7444C13.9656 15.7418 13.7371 15.8347 13.5639 15.9935C13.3902 16.1529 13.3005 16.3511 13.2927 16.5376C13.2859 16.7053 13.3407 16.9636 13.6493 17.2722L16.3302 19.953C17.2395 20.8623 18.7137 20.8623 19.623 19.953C20.5323 19.0437 20.5323 17.5696 19.623 16.6603L12.4741 9.51138Z" fill="url(#paint0_linear_1556_1184)"/>
<defs>
<linearGradient id="paint0_linear_1556_1184" x1="14.4021" y1="0.496094" x2="12.2364" y2="51.2462" gradientUnits="userSpaceOnUse">
<stop stop-color="#0AD491"/>
<stop offset="1" stop-color="#003366"/>
</linearGradient>
</defs>
</svg>
