<svg width="657" height="498" viewBox="0 0 657 498" fill="none" xmlns="http://www.w3.org/2000/svg">
                            <path d="M429.863 114.927C435.16 105.424 445.187 99.5339 456.067 99.5339H620.98C639.55 99.5339 653.659 116.233 650.559 134.542L593.306 472.717C590.862 487.147 578.363 497.709 563.726 497.709H267.556C244.662 497.709 230.205 473.098 241.352 453.102L429.863 114.927Z" fill="#FFB347" />
                            <path d="M297.912 13.3461C292.318 5.18412 283.06 0.305176 273.165 0.305176H37.2172C18.1901 0.305176 3.96943 17.7905 7.84666 36.4184L84.5981 405.165C87.4942 419.08 99.7563 429.052 113.969 429.052H525.873C550.008 429.052 564.263 402.002 550.62 382.093L297.912 13.3461Z" fill="#FFB347" />
                        </svg>