<svg width="25" height="25" viewBox="0 0 25 25" fill="none" xmlns="http://www.w3.org/2000/svg">
<g clip-path="url(#clip0_1514_784)">
<path d="M8.97852 2.51562C8.97852 1.96334 8.5308 1.51562 7.97852 1.51562C7.42624 1.51562 6.97852 1.96334 6.97852 2.51562V2.96447C7.35884 2.84383 7.76406 2.7577 8.19385 2.69524C8.4418 2.6592 8.70324 2.63039 8.97852 2.60736V2.51562Z" fill="url(#paint0_linear_1514_784)"/>
<path d="M20.9785 2.96447C20.5982 2.84383 20.193 2.7577 19.7632 2.69524C19.5152 2.6592 19.2538 2.63039 18.9785 2.60736V2.51562C18.9785 1.96334 19.4262 1.51562 19.9785 1.51562C20.5308 1.51562 20.9785 1.96334 20.9785 2.51562V2.96447Z" fill="url(#paint1_linear_1514_784)"/>
<path fill-rule="evenodd" clip-rule="evenodd" d="M15.0073 2.51563H12.9497C11.0015 2.5156 9.42993 2.51557 8.19385 2.69524C6.90387 2.88273 5.83532 3.28344 4.99654 4.19023C4.16801 5.08594 3.81131 6.20835 3.64268 7.56429C3.47849 8.88457 3.4785 10.5697 3.47852 12.6895V13.3417C3.4785 15.4615 3.47849 17.1467 3.64268 18.4669C3.81131 19.8229 4.16801 20.9453 4.99654 21.841C5.83532 22.7478 6.90387 23.1485 8.19385 23.336C9.42994 23.5157 11.0014 23.5156 12.9497 23.5156H15.0073C16.9556 23.5156 18.5271 23.5157 19.7632 23.336C21.0532 23.1485 22.1217 22.7478 22.9605 21.841C23.789 20.9453 24.1457 19.8229 24.3143 18.4669C24.4785 17.1467 24.4785 15.4615 24.4785 13.3417V12.6895C24.4785 10.5697 24.4785 8.88458 24.3143 7.56429C24.1457 6.20835 23.789 5.08594 22.9605 4.19023C22.1217 3.28344 21.0532 2.88273 19.7632 2.69524C18.5271 2.51557 16.9556 2.5156 15.0073 2.51563ZM6.47635 9.51563C6.01773 9.51563 5.78842 9.51563 5.64237 9.6598C5.49633 9.80396 5.49339 10.0303 5.48752 10.4831C5.47879 11.1563 5.47852 11.9098 5.47852 12.7588V13.2724C5.47852 15.4772 5.48034 17.0377 5.62739 18.2201C5.77179 19.3812 6.04115 20.025 6.46474 20.4829C6.87808 20.9298 7.44322 21.2059 8.48152 21.3568C9.5571 21.5131 10.9828 21.5156 13.0285 21.5156H14.9285C16.9742 21.5156 18.3999 21.5131 19.4755 21.3568C20.5138 21.2059 21.0789 20.9298 21.4923 20.4829C21.9159 20.025 22.1852 19.3812 22.3296 18.2201C22.4767 17.0377 22.4785 15.4772 22.4785 13.2724V12.7588C22.4785 11.9098 22.4782 11.1563 22.4695 10.4831C22.4636 10.0303 22.4607 9.80396 22.3147 9.6598C22.1686 9.51563 21.9393 9.51563 21.4807 9.51563H6.47635Z" fill="url(#paint2_linear_1514_784)"/>
<path fill-rule="evenodd" clip-rule="evenodd" d="M8.72852 13.5156C8.72852 12.8252 9.28816 12.2656 9.97852 12.2656H9.98749C10.6778 12.2656 11.2375 12.8252 11.2375 13.5156C11.2375 14.206 10.6778 14.7656 9.98749 14.7656H9.97852C9.28816 14.7656 8.72852 14.206 8.72852 13.5156ZM12.724 13.5156C12.724 12.8252 13.2837 12.2656 13.974 12.2656H13.983C14.6733 12.2656 15.233 12.8252 15.233 13.5156C15.233 14.206 14.6733 14.7656 13.983 14.7656H13.974C13.2837 14.7656 12.724 14.206 12.724 13.5156ZM16.7195 13.5156C16.7195 12.8252 17.2792 12.2656 17.9695 12.2656H17.9785C18.6689 12.2656 19.2285 12.8252 19.2285 13.5156C19.2285 14.206 18.6689 14.7656 17.9785 14.7656H17.9695C17.2792 14.7656 16.7195 14.206 16.7195 13.5156ZM8.72852 17.5156C8.72852 16.8252 9.28816 16.2656 9.97852 16.2656H9.98749C10.6778 16.2656 11.2375 16.8252 11.2375 17.5156C11.2375 18.206 10.6778 18.7656 9.98749 18.7656H9.97852C9.28816 18.7656 8.72852 18.206 8.72852 17.5156ZM12.724 17.5156C12.724 16.8252 13.2837 16.2656 13.974 16.2656H13.983C14.6733 16.2656 15.233 16.8252 15.233 17.5156C15.233 18.206 14.6733 18.7656 13.983 18.7656H13.974C13.2837 18.7656 12.724 18.206 12.724 17.5156Z" fill="url(#paint3_linear_1514_784)"/>
</g>
<defs>
<linearGradient id="paint0_linear_1514_784" x1="7.97852" y1="1.51562" x2="7.97852" y2="2.96447" gradientUnits="userSpaceOnUse">
<stop stop-color="#0AD491"/>
<stop offset="1" stop-color="#003366"/>
</linearGradient>
<linearGradient id="paint1_linear_1514_784" x1="19.9785" y1="1.51562" x2="19.9785" y2="2.96447" gradientUnits="userSpaceOnUse">
<stop stop-color="#0AD491"/>
<stop offset="1" stop-color="#003366"/>
</linearGradient>
<linearGradient id="paint2_linear_1514_784" x1="13.9785" y1="2.51562" x2="13.9785" y2="37.4944" gradientUnits="userSpaceOnUse">
<stop stop-color="#0AD491"/>
<stop offset="1" stop-color="#003366"/>
</linearGradient>
<linearGradient id="paint3_linear_1514_784" x1="13.9785" y1="12.2656" x2="13.9785" y2="28.7189" gradientUnits="userSpaceOnUse">
<stop stop-color="#0AD491"/>
<stop offset="1" stop-color="#003366"/>
</linearGradient>
<clipPath id="clip0_1514_784">
<rect width="23.7248" height="24" fill="white" transform="translate(0.830078 0.515625)"/>
</clipPath>
</defs>
</svg>
