<svg width="51" height="51" viewBox="0 0 51 51" fill="none" xmlns="http://www.w3.org/2000/svg">
<rect x="0.961914" y="0.333252" width="50" height="50" rx="11.0123" fill="url(#paint0_linear_928_2679)"/>
<circle cx="25.9593" cy="25.3329" r="11.9042" stroke="white" stroke-width="1.57318"/>
<path d="M23.2969 22.1299C23.2969 21.5855 23.2969 21.3133 23.4211 21.1666C23.5038 21.0689 23.6193 21.0049 23.746 20.9865C23.9362 20.9589 24.167 21.1032 24.6287 21.3918L29.7536 24.5948C30.1695 24.8547 30.3775 24.9847 30.4389 25.156C30.4799 25.2704 30.4799 25.3955 30.4389 25.5099C30.3775 25.6812 30.1695 25.8112 29.7536 26.0711L24.6287 29.2742C24.167 29.5627 23.9362 29.707 23.746 29.6794C23.6193 29.661 23.5038 29.597 23.4211 29.4993C23.2969 29.3527 23.2969 29.0804 23.2969 28.536V22.1299Z" fill="white"/>
<defs>
<linearGradient id="paint0_linear_928_2679" x1="31.7273" y1="2.28014" x2="-15.5551" y2="111.968" gradientUnits="userSpaceOnUse">
<stop stop-color="#0ABC8C"/>
<stop offset="1" stop-color="#003366"/>
</linearGradient>
</defs>
</svg>
