<svg width="51" height="51" viewBox="0 0 51 51" fill="none" xmlns="http://www.w3.org/2000/svg">
<rect x="0.81543" y="0.576843" width="50" height="50" rx="13.125" fill="url(#paint0_linear_928_2716)"/>
<g clip-path="url(#clip0_928_2716)">
<path d="M24.8389 34.1706H21.4795C20.1514 34.1706 19.0951 33.5243 18.1466 32.6208C16.205 30.771 19.3928 29.2928 20.6087 28.5688C22.8005 27.2637 25.4453 26.962 27.8467 27.6635" stroke="white" stroke-width="2.14844" stroke-linecap="round" stroke-linejoin="round"/>
<path d="M29.9951 20.1628C29.9951 22.2986 28.2637 24.03 26.1279 24.03C23.9921 24.03 22.2607 22.2986 22.2607 20.1628C22.2607 18.027 23.9921 16.2956 26.1279 16.2956C28.2637 16.2956 29.9951 18.027 29.9951 20.1628Z" stroke="white" stroke-width="2.14844"/>
<path d="M32.3439 27.1654C32.6321 26.8531 32.7762 26.697 32.9293 26.6059C33.2987 26.3862 33.7537 26.3794 34.1293 26.5879C34.2849 26.6744 34.4334 26.8261 34.7305 27.1295C35.0275 27.4329 35.176 27.5847 35.2607 27.7437C35.4648 28.1274 35.4581 28.5921 35.243 28.9695C35.1538 29.1259 35.0011 29.2731 34.6954 29.5675L31.0588 33.0701C30.4796 33.628 30.19 33.9069 29.828 34.0483C29.4662 34.1897 29.0682 34.1793 28.2724 34.1585L28.1641 34.1556C27.9219 34.1493 27.8008 34.1461 27.7303 34.0662C27.6599 33.9863 27.6696 33.8629 27.6887 33.6161L27.6992 33.4821C27.7533 32.7875 27.7803 32.4402 27.916 32.128C28.0516 31.8158 28.2856 31.5624 28.7535 31.0554L32.3439 27.1654Z" stroke="white" stroke-width="2.14844" stroke-linejoin="round"/>
</g>
<defs>
<linearGradient id="paint0_linear_928_2716" x1="31.5809" y1="2.52373" x2="-15.7016" y2="112.212" gradientUnits="userSpaceOnUse">
<stop stop-color="#0ABC8C"/>
<stop offset="1" stop-color="#003366"/>
</linearGradient>
<clipPath id="clip0_928_2716">
<rect width="20.625" height="20.625" fill="white" transform="translate(15.8154 15.2643)"/>
</clipPath>
</defs>
</svg>
