<svg width="51" height="51" viewBox="0 0 51 51" fill="none" xmlns="http://www.w3.org/2000/svg">
<rect x="0.0380859" y="0.333248" width="50" height="50" rx="11.0123" fill="url(#paint0_linear_928_2710)"/>
<path d="M15.9062 19.539C15.9062 17.6959 17.4003 16.2018 19.2434 16.2018C21.0865 16.2018 22.5806 17.6959 22.5806 19.539C22.5806 21.382 21.0865 22.8761 19.2434 22.8761C17.4003 22.8761 15.9062 21.382 15.9062 19.539Z" stroke="white" stroke-width="2.5"/>
<path d="M15.9062 31.1275C15.9062 29.2845 17.4003 27.7904 19.2434 27.7904C21.0865 27.7904 22.5806 29.2845 22.5806 31.1275C22.5806 32.9706 21.0865 34.4647 19.2434 34.4647C17.4003 34.4647 15.9062 32.9706 15.9062 31.1275Z" stroke="white" stroke-width="2.5"/>
<path d="M27.4951 31.1275C27.4951 29.2844 28.9892 27.7904 30.8323 27.7904C32.6754 27.7904 34.1694 29.2844 34.1694 31.1275C34.1694 32.9706 32.6754 34.4647 30.8323 34.4647C28.9892 34.4647 27.4951 32.9706 27.4951 31.1275Z" stroke="white" stroke-width="2.5"/>
<path fill-rule="evenodd" clip-rule="evenodd" d="M30.591 14.9518C31.1243 14.9518 31.5567 15.3842 31.5567 15.9175V16.1781C32.1354 16.3283 32.6609 16.6103 33.097 16.9904L33.4429 16.7645C33.8895 16.4728 34.4879 16.5984 34.7795 17.045C35.0711 17.4915 34.9456 18.0899 34.499 18.3816L34.1766 18.5922C34.3041 18.9654 34.3734 19.3652 34.3734 19.7804C34.3734 20.1956 34.3041 20.5955 34.1765 20.9688L34.4987 21.1792C34.9452 21.4708 35.0708 22.0692 34.7792 22.5158C34.4875 22.9623 33.8891 23.0879 33.4425 22.7963L33.0969 22.5705C32.6608 22.9505 32.1354 23.2325 31.5567 23.3826V23.6432C31.5567 24.1766 31.1243 24.609 30.591 24.609C30.0576 24.609 29.6253 24.1766 29.6253 23.6432V23.3826C29.0465 23.2325 28.5212 22.9505 28.085 22.5705L27.7394 22.7963C27.2929 23.0879 26.6944 22.9623 26.4028 22.5158C26.1111 22.0692 26.2368 21.4708 26.6833 21.1792L27.0055 20.9688C26.8779 20.5955 26.8086 20.1956 26.8086 19.7804C26.8086 19.3652 26.8779 18.9654 27.0054 18.5922L26.6829 18.3816C26.2364 18.0899 26.1107 17.4915 26.4024 17.045C26.694 16.5984 27.2925 16.4728 27.739 16.7645L28.0849 16.9904C28.521 16.6103 29.0465 16.3283 29.6253 16.1781V15.9175C29.6253 15.3842 30.0576 14.9518 30.591 14.9518ZM30.591 17.9869C29.9407 17.9869 29.3747 18.3103 29.045 18.7938C28.8514 19.0775 28.74 19.4155 28.74 19.7804C28.74 20.1453 28.8515 20.4833 29.0451 20.7671C29.3748 21.2505 29.9408 21.5739 30.591 21.5739C31.2412 21.5739 31.8072 21.2505 32.1369 20.7671C32.3304 20.4833 32.442 20.1453 32.442 19.7804C32.442 19.4155 32.3304 19.0775 32.137 18.7938C31.8073 18.3103 31.2413 17.9869 30.591 17.9869Z" fill="white"/>
<defs>
<linearGradient id="paint0_linear_928_2710" x1="30.8035" y1="2.28013" x2="-16.479" y2="111.968" gradientUnits="userSpaceOnUse">
<stop stop-color="#0ABC8C"/>
<stop offset="1" stop-color="#003366"/>
</linearGradient>
</defs>
</svg>
