<svg width="21" height="20" viewBox="0 0 21 20" fill="none" xmlns="http://www.w3.org/2000/svg">
<path d="M10.9785 0.0234375C9.00072 0.0234375 7.06732 0.594751 5.42283 1.66513C3.77834 2.73551 2.4966 4.25694 1.73973 6.03692C0.982851 7.8169 0.784814 9.77552 1.17067 11.6651C1.55652 13.5547 2.50893 15.2904 3.90745 16.6528C5.30598 18.0151 7.08782 18.9429 9.02763 19.3188C10.9674 19.6946 12.9781 19.5017 14.8054 18.7644C16.6326 18.0271 18.1944 16.7785 19.2932 15.1766C20.392 13.5747 20.9785 11.6913 20.9785 9.76469C20.9756 7.18202 19.9211 4.70592 18.0464 2.8797C16.1716 1.05347 13.6298 0.0262738 10.9785 0.0234375ZM10.9785 17.5577C9.39628 17.5577 7.84957 17.1006 6.53398 16.2443C5.21838 15.388 4.19301 14.171 3.58751 12.747C2.98201 11.323 2.82356 9.75609 3.13224 8.2444C3.44093 6.73271 4.20285 5.34407 5.32167 4.2542C6.44049 3.16433 7.86595 2.42209 9.4178 2.1214C10.9696 1.8207 12.5782 1.9751 14.04 2.56494C15.5018 3.15477 16.7512 4.15356 17.6303 5.43511C18.5093 6.71666 18.9785 8.22338 18.9785 9.76469C18.9761 11.8308 18.1325 13.8116 16.6328 15.2726C15.133 16.7335 13.0995 17.5554 10.9785 17.5577ZM15.9785 9.76469C15.9785 10.023 15.8732 10.2709 15.6856 10.4535C15.4981 10.6362 15.2437 10.7388 14.9785 10.7388H10.9785C10.7133 10.7388 10.459 10.6362 10.2714 10.4535C10.0839 10.2709 9.97853 10.023 9.97853 9.76469V4.89406C9.97853 4.63571 10.0839 4.38789 10.2714 4.20521C10.459 4.02252 10.7133 3.91994 10.9785 3.91994C11.2437 3.91994 11.4981 4.02252 11.6856 4.20521C11.8732 4.38789 11.9785 4.63571 11.9785 4.89406V8.79056H14.9785C15.2437 8.79056 15.4981 8.89315 15.6856 9.07583C15.8732 9.25851 15.9785 9.50633 15.9785 9.76469Z" fill="url(#paint0_linear_1514_781)"/>
<defs>
<linearGradient id="paint0_linear_1514_781" x1="10.9785" y1="0.0234375" x2="10.9785" y2="29.5897" gradientUnits="userSpaceOnUse">
<stop stop-color="#0AD491"/>
<stop offset="1" stop-color="#003366"/>
</linearGradient>
</defs>
</svg>
